ISO-10303-21;
HEADER;
FILE_DESCRIPTION(('Designed by EasyEDA Pro'),'2;1');
FILE_NAME('Open CASCADE Shape Model','2026-09-19T16:11:16',('Author'),(
    'Open CASCADE'),'Open CASCADE STEP processor 7.8','Open CASCADE 7.8'
  ,'Unknown');
FILE_SCHEMA(('AUTOMOTIVE_DESIGN { 1 0 10303 214 1 1 1 1 }'));
ENDSEC;
DATA;

#1 = APPLICATION_PROTOCOL_DEFINITION('international standard',  'automotive_design',2000,#2);
#2 = APPLICATION_CONTEXT(  'core data for automotive mechanical design processes');
#3 = SHAPE_DEFINITION_REPRESENTATION(#4,#10);
#4 = PRODUCT_DEFINITION_SHAPE('','',#5);
#5 = PRODUCT_DEFINITION('design','',#6,#9);
#6 = PRODUCT_DEFINITION_FORMATION('','',#7);
#7 = PRODUCT('EasyEDA PCB Model~KGfU','EasyEDA PCB Model~KGfU','',(#8));
#8 = PRODUCT_CONTEXT('',#2,'mechanical');
#9 = PRODUCT_DEFINITION_CONTEXT('part definition',#2,'design');
#10=SHAPE_REPRESENTATION('',(#11,#15,#19,#23,#27,#31,#35,#39),#43);
#11 = AXIS2_PLACEMENT_3D('',#12,#13,#14);
#12 = CARTESIAN_POINT('',(0.,0.,0.));
#13 = DIRECTION('',(0.,0.,1.));
#14 = DIRECTION('',(1.,0.,-0.));
#15 = AXIS2_PLACEMENT_3D('',#16,#17,#18);
#16 = CARTESIAN_POINT('',(0.,0.,0.));
#17 = DIRECTION('',(0.,0.,1.));
#18 = DIRECTION('',(1.,0.,-0.));
#19 = AXIS2_PLACEMENT_3D('',#20,#21,#22);
#20 = CARTESIAN_POINT('',(0.,0.,0.));
#21 = DIRECTION('',(0.,0.,1.));
#22 = DIRECTION('',(1.,0.,-0.));
#23 = AXIS2_PLACEMENT_3D('',#24,#25,#26);
#24 = CARTESIAN_POINT('',(0.,0.,0.));
#25 = DIRECTION('',(0.,0.,1.));
#26 = DIRECTION('',(1.,0.,-0.));
#27 = AXIS2_PLACEMENT_3D('',#28,#29,#30);
#28 = CARTESIAN_POINT('',(0.,0.,0.));
#29 = DIRECTION('',(0.,0.,1.));
#30 = DIRECTION('',(1.,0.,-0.));
#31 = AXIS2_PLACEMENT_3D('',#32,#33,#34);
#32 = CARTESIAN_POINT('',(0.,0.,0.));
#33 = DIRECTION('',(0.,0.,1.));
#34 = DIRECTION('',(1.,0.,-0.));
#35 = AXIS2_PLACEMENT_3D('',#36,#37,#38);
#36 = CARTESIAN_POINT('',(0.,0.,0.));
#37 = DIRECTION('',(0.,0.,1.));
#38 = DIRECTION('',(1.,0.,-0.));
#39 = AXIS2_PLACEMENT_3D('',#40,#41,#42);
#40 = CARTESIAN_POINT('',(0.,0.,0.));
#41 = DIRECTION('',(0.,0.,1.));
#42 = DIRECTION('',(1.,0.,-0.));
#43 = ( GEOMETRIC_REPRESENTATION_CONTEXT(3) GLOBAL_UNCERTAINTY_ASSIGNED_CONTEXT((#47)) GLOBAL_UNIT_ASSIGNED_CONTEXT((#44,#45,#46)) REPRESENTATION_CONTEXT('Context #1',  '3D Context with UNIT and UNCERTAINTY') );
#44 = ( LENGTH_UNIT() NAMED_UNIT(*) SI_UNIT(.MILLI.,.METRE.) );
#45 = ( NAMED_UNIT(*) PLANE_ANGLE_UNIT() SI_UNIT($,.RADIAN.) );
#46 = ( NAMED_UNIT(*) SI_UNIT($,.STERADIAN.) SOLID_ANGLE_UNIT() );
#47 = UNCERTAINTY_MEASURE_WITH_UNIT(LENGTH_MEASURE(1.E-07),#44,  'distance_accuracy_value','confusion accuracy');
#48 = PRODUCT_RELATED_PRODUCT_CATEGORY('part',$,(#7));
#49 = SHAPE_DEFINITION_REPRESENTATION(#50,#56);
#50 = PRODUCT_DEFINITION_SHAPE('','',#51);
#51 = PRODUCT_DEFINITION('design','',#52,#55);
#52 = PRODUCT_DEFINITION_FORMATION('','',#53);
#53 = PRODUCT('Board~KGfU','Board~KGfU','',(#54));
#54 = PRODUCT_CONTEXT('',#2,'mechanical');
#55 = PRODUCT_DEFINITION_CONTEXT('part definition',#2,'design');
#56 = ADVANCED_BREP_SHAPE_REPRESENTATION('',(#11,#57),#503);
#57 = MANIFOLD_SOLID_BREP('',#58);
#58 = CLOSED_SHELL('',(#59,#99,#130,#161,#183,#225,#249,#291,#315,#357,    #381,#423,#447,#475));
#59 = ADVANCED_FACE('',(#60),#94,.T.);
#60 = FACE_BOUND('',#61,.T.);
#61 = EDGE_LOOP('',(#62,#72,#80,#88));
#62 = ORIENTED_EDGE('',*,*,#63,.T.);
#63 = EDGE_CURVE('',#64,#66,#68,.T.);
#64 = VERTEX_POINT('',#65);
#65 = CARTESIAN_POINT('',(5.473710947422,-2.933705867412,0.));
#66 = VERTEX_POINT('',#67);
#67 = CARTESIAN_POINT('',(5.473710947422,-2.933705867412,1.600028244856)  );
#68 = LINE('',#69,#70);
#69 = CARTESIAN_POINT('',(5.473710947422,-2.933705867412,0.));
#70 = VECTOR('',#71,1.);
#71 = DIRECTION('',(0.,0.,1.));
#72 = ORIENTED_EDGE('',*,*,#73,.T.);
#73 = EDGE_CURVE('',#66,#74,#76,.T.);
#74 = VERTEX_POINT('',#75);
#75 = CARTESIAN_POINT('',(63.360426720853,-2.933705867412,1.600028244856    ));
#76 = LINE('',#77,#78);
#77 = CARTESIAN_POINT('',(5.473710947422,-2.933705867412,1.600028244856)  );
#78 = VECTOR('',#79,1.);
#79 = DIRECTION('',(1.,0.,0.));
#80 = ORIENTED_EDGE('',*,*,#81,.F.);
#81 = EDGE_CURVE('',#82,#74,#84,.T.);
#82 = VERTEX_POINT('',#83);
#83 = CARTESIAN_POINT('',(63.360426720853,-2.933705867412,0.));
#84 = LINE('',#85,#86);
#85 = CARTESIAN_POINT('',(63.360426720853,-2.933705867412,0.));
#86 = VECTOR('',#87,1.);
#87 = DIRECTION('',(0.,0.,1.));
#88 = ORIENTED_EDGE('',*,*,#89,.F.);
#89 = EDGE_CURVE('',#64,#82,#90,.T.);
#90 = LINE('',#91,#92);
#91 = CARTESIAN_POINT('',(5.473710947422,-2.933705867412,0.));
#92 = VECTOR('',#93,1.);
#93 = DIRECTION('',(1.,0.,0.));
#94 = PLANE('',#95);
#95 = AXIS2_PLACEMENT_3D('',#96,#97,#98);
#96 = CARTESIAN_POINT('',(5.473710947422,-2.933705867412,0.));
#97 = DIRECTION('',(0.,1.,0.));
#98 = DIRECTION('',(1.,0.,0.));
#99 = ADVANCED_FACE('',(#100),#125,.T.);
#100 = FACE_BOUND('',#101,.T.);
#101 = EDGE_LOOP('',(#102,#103,#111,#119));
#102 = ORIENTED_EDGE('',*,*,#81,.T.);
#103 = ORIENTED_EDGE('',*,*,#104,.T.);
#104 = EDGE_CURVE('',#74,#105,#107,.T.);
#105 = VERTEX_POINT('',#106);
#106 = CARTESIAN_POINT('',(63.360426720853,-71.48844297688,    1.600028244856));
#107 = LINE('',#108,#109);
#108 = CARTESIAN_POINT('',(63.360426720853,-2.933705867412,    1.600028244856));
#109 = VECTOR('',#110,1.);
#110 = DIRECTION('',(0.,-1.,0.));
#111 = ORIENTED_EDGE('',*,*,#112,.F.);
#112 = EDGE_CURVE('',#113,#105,#115,.T.);
#113 = VERTEX_POINT('',#114);
#114 = CARTESIAN_POINT('',(63.360426720853,-71.48844297688,0.));
#115 = LINE('',#116,#117);
#116 = CARTESIAN_POINT('',(63.360426720853,-71.48844297688,0.));
#117 = VECTOR('',#118,1.);
#118 = DIRECTION('',(0.,0.,1.));
#119 = ORIENTED_EDGE('',*,*,#120,.F.);
#120 = EDGE_CURVE('',#82,#113,#121,.T.);
#121 = LINE('',#122,#123);
#122 = CARTESIAN_POINT('',(63.360426720853,-2.933705867412,0.));
#123 = VECTOR('',#124,1.);
#124 = DIRECTION('',(0.,-1.,0.));
#125 = PLANE('',#126);
#126 = AXIS2_PLACEMENT_3D('',#127,#128,#129);
#127 = CARTESIAN_POINT('',(63.360426720853,-2.933705867412,0.));
#128 = DIRECTION('',(1.,0.,-0.));
#129 = DIRECTION('',(0.,-1.,0.));
#130 = ADVANCED_FACE('',(#131),#156,.T.);
#131 = FACE_BOUND('',#132,.T.);
#132 = EDGE_LOOP('',(#133,#134,#142,#150));
#133 = ORIENTED_EDGE('',*,*,#112,.T.);
#134 = ORIENTED_EDGE('',*,*,#135,.T.);
#135 = EDGE_CURVE('',#105,#136,#138,.T.);
#136 = VERTEX_POINT('',#137);
#137 = CARTESIAN_POINT('',(5.473710947422,-71.48844297688,1.600028244856    ));
#138 = LINE('',#139,#140);
#139 = CARTESIAN_POINT('',(63.360426720853,-71.48844297688,    1.600028244856));
#140 = VECTOR('',#141,1.);
#141 = DIRECTION('',(-1.,0.,0.));
#142 = ORIENTED_EDGE('',*,*,#143,.F.);
#143 = EDGE_CURVE('',#144,#136,#146,.T.);
#144 = VERTEX_POINT('',#145);
#145 = CARTESIAN_POINT('',(5.473710947422,-71.48844297688,0.));
#146 = LINE('',#147,#148);
#147 = CARTESIAN_POINT('',(5.473710947422,-71.48844297688,0.));
#148 = VECTOR('',#149,1.);
#149 = DIRECTION('',(0.,0.,1.));
#150 = ORIENTED_EDGE('',*,*,#151,.F.);
#151 = EDGE_CURVE('',#113,#144,#152,.T.);
#152 = LINE('',#153,#154);
#153 = CARTESIAN_POINT('',(63.360426720853,-71.48844297688,0.));
#154 = VECTOR('',#155,1.);
#155 = DIRECTION('',(-1.,0.,0.));
#156 = PLANE('',#157);
#157 = AXIS2_PLACEMENT_3D('',#158,#159,#160);
#158 = CARTESIAN_POINT('',(63.360426720853,-71.48844297688,0.));
#159 = DIRECTION('',(0.,-1.,0.));
#160 = DIRECTION('',(-1.,0.,0.));
#161 = ADVANCED_FACE('',(#162),#178,.T.);
#162 = FACE_BOUND('',#163,.T.);
#163 = EDGE_LOOP('',(#164,#165,#171,#172));
#164 = ORIENTED_EDGE('',*,*,#143,.T.);
#165 = ORIENTED_EDGE('',*,*,#166,.T.);
#166 = EDGE_CURVE('',#136,#66,#167,.T.);
#167 = LINE('',#168,#169);
#168 = CARTESIAN_POINT('',(5.473710947422,-71.48844297688,1.600028244856    ));
#169 = VECTOR('',#170,1.);
#170 = DIRECTION('',(0.,1.,0.));
#171 = ORIENTED_EDGE('',*,*,#63,.F.);
#172 = ORIENTED_EDGE('',*,*,#173,.F.);
#173 = EDGE_CURVE('',#144,#64,#174,.T.);
#174 = LINE('',#175,#176);
#175 = CARTESIAN_POINT('',(5.473710947422,-71.48844297688,0.));
#176 = VECTOR('',#177,1.);
#177 = DIRECTION('',(0.,1.,0.));
#178 = PLANE('',#179);
#179 = AXIS2_PLACEMENT_3D('',#180,#181,#182);
#180 = CARTESIAN_POINT('',(5.473710947422,-71.48844297688,0.));
#181 = DIRECTION('',(-1.,0.,0.));
#182 = DIRECTION('',(0.,1.,0.));
#183 = ADVANCED_FACE('',(#184),#220,.F.);
#184 = FACE_BOUND('',#185,.T.);
#185 = EDGE_LOOP('',(#186,#196,#205,#213));
#186 = ORIENTED_EDGE('',*,*,#187,.T.);
#187 = EDGE_CURVE('',#188,#190,#192,.T.);
#188 = VERTEX_POINT('',#189);
#189 = CARTESIAN_POINT('',(23.942341884684,-12.10303276606,0.));
#190 = VERTEX_POINT('',#191);
#191 = CARTESIAN_POINT('',(23.942341884684,-12.10303276606,    1.600028244856));
#192 = LINE('',#193,#194);
#193 = CARTESIAN_POINT('',(23.942341884684,-12.10303276606,0.));
#194 = VECTOR('',#195,1.);
#195 = DIRECTION('',(0.,0.,1.));
#196 = ORIENTED_EDGE('',*,*,#197,.T.);
#197 = EDGE_CURVE('',#190,#198,#200,.T.);
#198 = VERTEX_POINT('',#199);
#199 = CARTESIAN_POINT('',(23.142341884684,-12.10303276606,    1.600028244856));
#200 = CIRCLE('',#201,0.4);
#201 = AXIS2_PLACEMENT_3D('',#202,#203,#204);
#202 = CARTESIAN_POINT('',(23.542341884684,-12.10303276606,    1.600028244856));
#203 = DIRECTION('',(0.,0.,1.));
#204 = DIRECTION('',(1.,1.110223024625E-16,-0.));
#205 = ORIENTED_EDGE('',*,*,#206,.F.);
#206 = EDGE_CURVE('',#207,#198,#209,.T.);
#207 = VERTEX_POINT('',#208);
#208 = CARTESIAN_POINT('',(23.142341884684,-12.10303276606,0.));
#209 = LINE('',#210,#211);
#210 = CARTESIAN_POINT('',(23.142341884684,-12.10303276606,0.));
#211 = VECTOR('',#212,1.);
#212 = DIRECTION('',(0.,0.,1.));
#213 = ORIENTED_EDGE('',*,*,#214,.F.);
#214 = EDGE_CURVE('',#188,#207,#215,.T.);
#215 = CIRCLE('',#216,0.4);
#216 = AXIS2_PLACEMENT_3D('',#217,#218,#219);
#217 = CARTESIAN_POINT('',(23.542341884684,-12.10303276606,0.));
#218 = DIRECTION('',(0.,0.,1.));
#219 = DIRECTION('',(1.,1.110223024625E-16,-0.));
#220 = CYLINDRICAL_SURFACE('',#221,0.4);
#221 = AXIS2_PLACEMENT_3D('',#222,#223,#224);
#222 = CARTESIAN_POINT('',(23.542341884684,-12.10303276606,0.));
#223 = DIRECTION('',(-0.,-0.,-1.));
#224 = DIRECTION('',(1.,1.110223024625E-16,-0.));
#225 = ADVANCED_FACE('',(#226),#244,.F.);
#226 = FACE_BOUND('',#227,.T.);
#227 = EDGE_LOOP('',(#228,#229,#236,#237));
#228 = ORIENTED_EDGE('',*,*,#206,.T.);
#229 = ORIENTED_EDGE('',*,*,#230,.T.);
#230 = EDGE_CURVE('',#198,#190,#231,.T.);
#231 = CIRCLE('',#232,0.4);
#232 = AXIS2_PLACEMENT_3D('',#233,#234,#235);
#233 = CARTESIAN_POINT('',(23.542341884684,-12.10303276606,    1.600028244856));
#234 = DIRECTION('',(0.,0.,1.));
#235 = DIRECTION('',(-1.,-1.110223024625E-16,0.));
#236 = ORIENTED_EDGE('',*,*,#187,.F.);
#237 = ORIENTED_EDGE('',*,*,#238,.F.);
#238 = EDGE_CURVE('',#207,#188,#239,.T.);
#239 = CIRCLE('',#240,0.4);
#240 = AXIS2_PLACEMENT_3D('',#241,#242,#243);
#241 = CARTESIAN_POINT('',(23.542341884684,-12.10303276606,0.));
#242 = DIRECTION('',(0.,0.,1.));
#243 = DIRECTION('',(-1.,-1.110223024625E-16,0.));
#244 = CYLINDRICAL_SURFACE('',#245,0.4);
#245 = AXIS2_PLACEMENT_3D('',#246,#247,#248);
#246 = CARTESIAN_POINT('',(23.542341884684,-12.10303276606,0.));
#247 = DIRECTION('',(-0.,-0.,-1.));
#248 = DIRECTION('',(-1.,-1.110223024625E-16,0.));
#249 = ADVANCED_FACE('',(#250),#286,.F.);
#250 = FACE_BOUND('',#251,.T.);
#251 = EDGE_LOOP('',(#252,#262,#271,#279));
#252 = ORIENTED_EDGE('',*,*,#253,.T.);
#253 = EDGE_CURVE('',#254,#256,#258,.T.);
#254 = VERTEX_POINT('',#255);
#255 = CARTESIAN_POINT('',(26.482346964694,-12.10303276606,0.));
#256 = VERTEX_POINT('',#257);
#257 = CARTESIAN_POINT('',(26.482346964694,-12.10303276606,    1.600028244856));
#258 = LINE('',#259,#260);
#259 = CARTESIAN_POINT('',(26.482346964694,-12.10303276606,0.));
#260 = VECTOR('',#261,1.);
#261 = DIRECTION('',(0.,0.,1.));
#262 = ORIENTED_EDGE('',*,*,#263,.T.);
#263 = EDGE_CURVE('',#256,#264,#266,.T.);
#264 = VERTEX_POINT('',#265);
#265 = CARTESIAN_POINT('',(25.682346964694,-12.10303276606,    1.600028244856));
#266 = CIRCLE('',#267,0.4);
#267 = AXIS2_PLACEMENT_3D('',#268,#269,#270);
#268 = CARTESIAN_POINT('',(26.082346964694,-12.10303276606,    1.600028244856));
#269 = DIRECTION('',(0.,0.,1.));
#270 = DIRECTION('',(1.,1.110223024625E-16,-0.));
#271 = ORIENTED_EDGE('',*,*,#272,.F.);
#272 = EDGE_CURVE('',#273,#264,#275,.T.);
#273 = VERTEX_POINT('',#274);
#274 = CARTESIAN_POINT('',(25.682346964694,-12.10303276606,0.));
#275 = LINE('',#276,#277);
#276 = CARTESIAN_POINT('',(25.682346964694,-12.10303276606,0.));
#277 = VECTOR('',#278,1.);
#278 = DIRECTION('',(0.,0.,1.));
#279 = ORIENTED_EDGE('',*,*,#280,.F.);
#280 = EDGE_CURVE('',#254,#273,#281,.T.);
#281 = CIRCLE('',#282,0.4);
#282 = AXIS2_PLACEMENT_3D('',#283,#284,#285);
#283 = CARTESIAN_POINT('',(26.082346964694,-12.10303276606,0.));
#284 = DIRECTION('',(0.,0.,1.));
#285 = DIRECTION('',(1.,1.110223024625E-16,-0.));
#286 = CYLINDRICAL_SURFACE('',#287,0.4);
#287 = AXIS2_PLACEMENT_3D('',#288,#289,#290);
#288 = CARTESIAN_POINT('',(26.082346964694,-12.10303276606,0.));
#289 = DIRECTION('',(-0.,-0.,-1.));
#290 = DIRECTION('',(1.,1.110223024625E-16,-0.));
#291 = ADVANCED_FACE('',(#292),#310,.F.);
#292 = FACE_BOUND('',#293,.T.);
#293 = EDGE_LOOP('',(#294,#295,#302,#303));
#294 = ORIENTED_EDGE('',*,*,#272,.T.);
#295 = ORIENTED_EDGE('',*,*,#296,.T.);
#296 = EDGE_CURVE('',#264,#256,#297,.T.);
#297 = CIRCLE('',#298,0.4);
#298 = AXIS2_PLACEMENT_3D('',#299,#300,#301);
#299 = CARTESIAN_POINT('',(26.082346964694,-12.10303276606,    1.600028244856));
#300 = DIRECTION('',(0.,0.,1.));
#301 = DIRECTION('',(-1.,-1.110223024625E-16,0.));
#302 = ORIENTED_EDGE('',*,*,#253,.F.);
#303 = ORIENTED_EDGE('',*,*,#304,.F.);
#304 = EDGE_CURVE('',#273,#254,#305,.T.);
#305 = CIRCLE('',#306,0.4);
#306 = AXIS2_PLACEMENT_3D('',#307,#308,#309);
#307 = CARTESIAN_POINT('',(26.082346964694,-12.10303276606,0.));
#308 = DIRECTION('',(0.,0.,1.));
#309 = DIRECTION('',(-1.,-1.110223024625E-16,0.));
#310 = CYLINDRICAL_SURFACE('',#311,0.4);
#311 = AXIS2_PLACEMENT_3D('',#312,#313,#314);
#312 = CARTESIAN_POINT('',(26.082346964694,-12.10303276606,0.));
#313 = DIRECTION('',(-0.,-0.,-1.));
#314 = DIRECTION('',(-1.,-1.110223024625E-16,0.));
#315 = ADVANCED_FACE('',(#316),#352,.F.);
#316 = FACE_BOUND('',#317,.T.);
#317 = EDGE_LOOP('',(#318,#328,#337,#345));
#318 = ORIENTED_EDGE('',*,*,#319,.T.);
#319 = EDGE_CURVE('',#320,#322,#324,.T.);
#320 = VERTEX_POINT('',#321);
#321 = CARTESIAN_POINT('',(29.022352044704,-12.10303276606,0.));
#322 = VERTEX_POINT('',#323);
#323 = CARTESIAN_POINT('',(29.022352044704,-12.10303276606,    1.600028244856));
#324 = LINE('',#325,#326);
#325 = CARTESIAN_POINT('',(29.022352044704,-12.10303276606,0.));
#326 = VECTOR('',#327,1.);
#327 = DIRECTION('',(0.,0.,1.));
#328 = ORIENTED_EDGE('',*,*,#329,.T.);
#329 = EDGE_CURVE('',#322,#330,#332,.T.);
#330 = VERTEX_POINT('',#331);
#331 = CARTESIAN_POINT('',(28.222352044704,-12.10303276606,    1.600028244856));
#332 = CIRCLE('',#333,0.4);
#333 = AXIS2_PLACEMENT_3D('',#334,#335,#336);
#334 = CARTESIAN_POINT('',(28.622352044704,-12.10303276606,    1.600028244856));
#335 = DIRECTION('',(0.,0.,1.));
#336 = DIRECTION('',(1.,1.110223024625E-16,-0.));
#337 = ORIENTED_EDGE('',*,*,#338,.F.);
#338 = EDGE_CURVE('',#339,#330,#341,.T.);
#339 = VERTEX_POINT('',#340);
#340 = CARTESIAN_POINT('',(28.222352044704,-12.10303276606,0.));
#341 = LINE('',#342,#343);
#342 = CARTESIAN_POINT('',(28.222352044704,-12.10303276606,0.));
#343 = VECTOR('',#344,1.);
#344 = DIRECTION('',(0.,0.,1.));
#345 = ORIENTED_EDGE('',*,*,#346,.F.);
#346 = EDGE_CURVE('',#320,#339,#347,.T.);
#347 = CIRCLE('',#348,0.4);
#348 = AXIS2_PLACEMENT_3D('',#349,#350,#351);
#349 = CARTESIAN_POINT('',(28.622352044704,-12.10303276606,0.));
#350 = DIRECTION('',(0.,0.,1.));
#351 = DIRECTION('',(1.,1.110223024625E-16,-0.));
#352 = CYLINDRICAL_SURFACE('',#353,0.4);
#353 = AXIS2_PLACEMENT_3D('',#354,#355,#356);
#354 = CARTESIAN_POINT('',(28.622352044704,-12.10303276606,0.));
#355 = DIRECTION('',(-0.,-0.,-1.));
#356 = DIRECTION('',(1.,1.110223024625E-16,-0.));
#357 = ADVANCED_FACE('',(#358),#376,.F.);
#358 = FACE_BOUND('',#359,.T.);
#359 = EDGE_LOOP('',(#360,#361,#368,#369));
#360 = ORIENTED_EDGE('',*,*,#338,.T.);
#361 = ORIENTED_EDGE('',*,*,#362,.T.);
#362 = EDGE_CURVE('',#330,#322,#363,.T.);
#363 = CIRCLE('',#364,0.4);
#364 = AXIS2_PLACEMENT_3D('',#365,#366,#367);
#365 = CARTESIAN_POINT('',(28.622352044704,-12.10303276606,    1.600028244856));
#366 = DIRECTION('',(0.,0.,1.));
#367 = DIRECTION('',(-1.,-1.110223024625E-16,0.));
#368 = ORIENTED_EDGE('',*,*,#319,.F.);
#369 = ORIENTED_EDGE('',*,*,#370,.F.);
#370 = EDGE_CURVE('',#339,#320,#371,.T.);
#371 = CIRCLE('',#372,0.4);
#372 = AXIS2_PLACEMENT_3D('',#373,#374,#375);
#373 = CARTESIAN_POINT('',(28.622352044704,-12.10303276606,0.));
#374 = DIRECTION('',(0.,0.,1.));
#375 = DIRECTION('',(-1.,-1.110223024625E-16,0.));
#376 = CYLINDRICAL_SURFACE('',#377,0.4);
#377 = AXIS2_PLACEMENT_3D('',#378,#379,#380);
#378 = CARTESIAN_POINT('',(28.622352044704,-12.10303276606,0.));
#379 = DIRECTION('',(-0.,-0.,-1.));
#380 = DIRECTION('',(-1.,-1.110223024625E-16,0.));
#381 = ADVANCED_FACE('',(#382),#418,.F.);
#382 = FACE_BOUND('',#383,.T.);
#383 = EDGE_LOOP('',(#384,#394,#403,#411));
#384 = ORIENTED_EDGE('',*,*,#385,.T.);
#385 = EDGE_CURVE('',#386,#388,#390,.T.);
#386 = VERTEX_POINT('',#387);
#387 = CARTESIAN_POINT('',(31.562357124714,-12.10303276606,0.));
#388 = VERTEX_POINT('',#389);
#389 = CARTESIAN_POINT('',(31.562357124714,-12.10303276606,    1.600028244856));
#390 = LINE('',#391,#392);
#391 = CARTESIAN_POINT('',(31.562357124714,-12.10303276606,0.));
#392 = VECTOR('',#393,1.);
#393 = DIRECTION('',(0.,0.,1.));
#394 = ORIENTED_EDGE('',*,*,#395,.T.);
#395 = EDGE_CURVE('',#388,#396,#398,.T.);
#396 = VERTEX_POINT('',#397);
#397 = CARTESIAN_POINT('',(30.762357124714,-12.10303276606,    1.600028244856));
#398 = CIRCLE('',#399,0.4);
#399 = AXIS2_PLACEMENT_3D('',#400,#401,#402);
#400 = CARTESIAN_POINT('',(31.162357124714,-12.10303276606,    1.600028244856));
#401 = DIRECTION('',(0.,0.,1.));
#402 = DIRECTION('',(1.,1.110223024625E-16,-0.));
#403 = ORIENTED_EDGE('',*,*,#404,.F.);
#404 = EDGE_CURVE('',#405,#396,#407,.T.);
#405 = VERTEX_POINT('',#406);
#406 = CARTESIAN_POINT('',(30.762357124714,-12.10303276606,0.));
#407 = LINE('',#408,#409);
#408 = CARTESIAN_POINT('',(30.762357124714,-12.10303276606,0.));
#409 = VECTOR('',#410,1.);
#410 = DIRECTION('',(0.,0.,1.));
#411 = ORIENTED_EDGE('',*,*,#412,.F.);
#412 = EDGE_CURVE('',#386,#405,#413,.T.);
#413 = CIRCLE('',#414,0.4);
#414 = AXIS2_PLACEMENT_3D('',#415,#416,#417);
#415 = CARTESIAN_POINT('',(31.162357124714,-12.10303276606,0.));
#416 = DIRECTION('',(0.,0.,1.));
#417 = DIRECTION('',(1.,1.110223024625E-16,-0.));
#418 = CYLINDRICAL_SURFACE('',#419,0.4);
#419 = AXIS2_PLACEMENT_3D('',#420,#421,#422);
#420 = CARTESIAN_POINT('',(31.162357124714,-12.10303276606,0.));
#421 = DIRECTION('',(-0.,-0.,-1.));
#422 = DIRECTION('',(1.,1.110223024625E-16,-0.));
#423 = ADVANCED_FACE('',(#424),#442,.F.);
#424 = FACE_BOUND('',#425,.T.);
#425 = EDGE_LOOP('',(#426,#427,#434,#435));
#426 = ORIENTED_EDGE('',*,*,#404,.T.);
#427 = ORIENTED_EDGE('',*,*,#428,.T.);
#428 = EDGE_CURVE('',#396,#388,#429,.T.);
#429 = CIRCLE('',#430,0.4);
#430 = AXIS2_PLACEMENT_3D('',#431,#432,#433);
#431 = CARTESIAN_POINT('',(31.162357124714,-12.10303276606,    1.600028244856));
#432 = DIRECTION('',(0.,0.,1.));
#433 = DIRECTION('',(-1.,-1.110223024625E-16,0.));
#434 = ORIENTED_EDGE('',*,*,#385,.F.);
#435 = ORIENTED_EDGE('',*,*,#436,.F.);
#436 = EDGE_CURVE('',#405,#386,#437,.T.);
#437 = CIRCLE('',#438,0.4);
#438 = AXIS2_PLACEMENT_3D('',#439,#440,#441);
#439 = CARTESIAN_POINT('',(31.162357124714,-12.10303276606,0.));
#440 = DIRECTION('',(0.,0.,1.));
#441 = DIRECTION('',(-1.,-1.110223024625E-16,0.));
#442 = CYLINDRICAL_SURFACE('',#443,0.4);
#443 = AXIS2_PLACEMENT_3D('',#444,#445,#446);
#444 = CARTESIAN_POINT('',(31.162357124714,-12.10303276606,0.));
#445 = DIRECTION('',(-0.,-0.,-1.));
#446 = DIRECTION('',(-1.,-1.110223024625E-16,0.));
#447 = ADVANCED_FACE('',(#448,#454,#458,#462,#466),#470,.T.);
#448 = FACE_BOUND('',#449,.T.);
#449 = EDGE_LOOP('',(#450,#451,#452,#453));
#450 = ORIENTED_EDGE('',*,*,#89,.T.);
#451 = ORIENTED_EDGE('',*,*,#120,.T.);
#452 = ORIENTED_EDGE('',*,*,#151,.T.);
#453 = ORIENTED_EDGE('',*,*,#173,.T.);
#454 = FACE_BOUND('',#455,.T.);
#455 = EDGE_LOOP('',(#456,#457));
#456 = ORIENTED_EDGE('',*,*,#214,.T.);
#457 = ORIENTED_EDGE('',*,*,#238,.T.);
#458 = FACE_BOUND('',#459,.T.);
#459 = EDGE_LOOP('',(#460,#461));
#460 = ORIENTED_EDGE('',*,*,#280,.T.);
#461 = ORIENTED_EDGE('',*,*,#304,.T.);
#462 = FACE_BOUND('',#463,.T.);
#463 = EDGE_LOOP('',(#464,#465));
#464 = ORIENTED_EDGE('',*,*,#346,.T.);
#465 = ORIENTED_EDGE('',*,*,#370,.T.);
#466 = FACE_BOUND('',#467,.T.);
#467 = EDGE_LOOP('',(#468,#469));
#468 = ORIENTED_EDGE('',*,*,#412,.T.);
#469 = ORIENTED_EDGE('',*,*,#436,.T.);
#470 = PLANE('',#471);
#471 = AXIS2_PLACEMENT_3D('',#472,#473,#474);
#472 = CARTESIAN_POINT('',(34.417068834138,-37.21107442214,0.));
#473 = DIRECTION('',(-0.,-0.,-1.));
#474 = DIRECTION('',(-1.,0.,0.));
#475 = ADVANCED_FACE('',(#476,#482,#486,#490,#494),#498,.F.);
#476 = FACE_BOUND('',#477,.F.);
#477 = EDGE_LOOP('',(#478,#479,#480,#481));
#478 = ORIENTED_EDGE('',*,*,#73,.T.);
#479 = ORIENTED_EDGE('',*,*,#104,.T.);
#480 = ORIENTED_EDGE('',*,*,#135,.T.);
#481 = ORIENTED_EDGE('',*,*,#166,.T.);
#482 = FACE_BOUND('',#483,.F.);
#483 = EDGE_LOOP('',(#484,#485));
#484 = ORIENTED_EDGE('',*,*,#197,.T.);
#485 = ORIENTED_EDGE('',*,*,#230,.T.);
#486 = FACE_BOUND('',#487,.F.);
#487 = EDGE_LOOP('',(#488,#489));
#488 = ORIENTED_EDGE('',*,*,#263,.T.);
#489 = ORIENTED_EDGE('',*,*,#296,.T.);
#490 = FACE_BOUND('',#491,.F.);
#491 = EDGE_LOOP('',(#492,#493));
#492 = ORIENTED_EDGE('',*,*,#329,.T.);
#493 = ORIENTED_EDGE('',*,*,#362,.T.);
#494 = FACE_BOUND('',#495,.F.);
#495 = EDGE_LOOP('',(#496,#497));
#496 = ORIENTED_EDGE('',*,*,#395,.T.);
#497 = ORIENTED_EDGE('',*,*,#428,.T.);
#498 = PLANE('',#499);
#499 = AXIS2_PLACEMENT_3D('',#500,#501,#502);
#500 = CARTESIAN_POINT('',(34.417068834138,-37.21107442214,    1.600028244856));
#501 = DIRECTION('',(-0.,-0.,-1.));
#502 = DIRECTION('',(-1.,0.,0.));
#503 = ( GEOMETRIC_REPRESENTATION_CONTEXT(3) GLOBAL_UNCERTAINTY_ASSIGNED_CONTEXT((#507)) GLOBAL_UNIT_ASSIGNED_CONTEXT((#504,#505,#506)) REPRESENTATION_CONTEXT('Context #1',  '3D Context with UNIT and UNCERTAINTY') );
#504 = ( LENGTH_UNIT() NAMED_UNIT(*) SI_UNIT(.MILLI.,.METRE.) );
#505 = ( NAMED_UNIT(*) PLANE_ANGLE_UNIT() SI_UNIT($,.RADIAN.) );
#506 = ( NAMED_UNIT(*) SI_UNIT($,.STERADIAN.) SOLID_ANGLE_UNIT() );
#507 = UNCERTAINTY_MEASURE_WITH_UNIT(LENGTH_MEASURE(1.E-07),#504,  'distance_accuracy_value','confusion accuracy');
#508 = CONTEXT_DEPENDENT_SHAPE_REPRESENTATION(#509,#511);
#509 = ( REPRESENTATION_RELATIONSHIP('','',#56,#10) REPRESENTATION_RELATIONSHIP_WITH_TRANSFORMATION(#510) SHAPE_REPRESENTATION_RELATIONSHIP() );
#510 = ITEM_DEFINED_TRANSFORMATION('','',#11,#15);
#511 = PRODUCT_DEFINITION_SHAPE('Placement','Placement of an item',#512  );
#512 = NEXT_ASSEMBLY_USAGE_OCCURRENCE('1','=>[0:1:1:2]','',#5,#51,$);
#513 = PRODUCT_RELATED_PRODUCT_CATEGORY('part',$,(#53));
#514 = SHAPE_DEFINITION_REPRESENTATION(#515,#521);
#515 = PRODUCT_DEFINITION_SHAPE('','',#516);
#516 = PRODUCT_DEFINITION('design','',#517,#520);
#517 = PRODUCT_DEFINITION_FORMATION('','',#518);
#518 = PRODUCT('TopCopper~KGfU','TopCopper~KGfU','',(#519));
#519 = PRODUCT_CONTEXT('',#2,'mechanical');
#520 = PRODUCT_DEFINITION_CONTEXT('part definition',#2,'design');
#521 = SHAPE_REPRESENTATION('',(#11),#522);
#522 = ( GEOMETRIC_REPRESENTATION_CONTEXT(3) GLOBAL_UNCERTAINTY_ASSIGNED_CONTEXT((#526)) GLOBAL_UNIT_ASSIGNED_CONTEXT((#523,#524,#525)) REPRESENTATION_CONTEXT('Context #1',  '3D Context with UNIT and UNCERTAINTY') );
#523 = ( LENGTH_UNIT() NAMED_UNIT(*) SI_UNIT(.MILLI.,.METRE.) );
#524 = ( NAMED_UNIT(*) PLANE_ANGLE_UNIT() SI_UNIT($,.RADIAN.) );
#525 = ( NAMED_UNIT(*) SI_UNIT($,.STERADIAN.) SOLID_ANGLE_UNIT() );
#526 = UNCERTAINTY_MEASURE_WITH_UNIT(LENGTH_MEASURE(1.E-07),#523,  'distance_accuracy_value','confusion accuracy');
#527 = CONTEXT_DEPENDENT_SHAPE_REPRESENTATION(#528,#530);
#528 = ( REPRESENTATION_RELATIONSHIP('','',#521,#10) REPRESENTATION_RELATIONSHIP_WITH_TRANSFORMATION(#529) SHAPE_REPRESENTATION_RELATIONSHIP() );
#529 = ITEM_DEFINED_TRANSFORMATION('','',#11,#19);
#530 = PRODUCT_DEFINITION_SHAPE('Placement','Placement of an item',#531  );
#531 = NEXT_ASSEMBLY_USAGE_OCCURRENCE('2','=>[0:1:1:3]','',#5,#516,$);
#532 = PRODUCT_RELATED_PRODUCT_CATEGORY('part',$,(#518));
#533 = SHAPE_DEFINITION_REPRESENTATION(#534,#540);
#534 = PRODUCT_DEFINITION_SHAPE('','',#535);
#535 = PRODUCT_DEFINITION('design','',#536,#539);
#536 = PRODUCT_DEFINITION_FORMATION('','',#537);
#537 = PRODUCT('BottomCopper~KGfU','BottomCopper~KGfU','',(#538));
#538 = PRODUCT_CONTEXT('',#2,'mechanical');
#539 = PRODUCT_DEFINITION_CONTEXT('part definition',#2,'design');
#540 = SHAPE_REPRESENTATION('',(#11),#541);
#541 = ( GEOMETRIC_REPRESENTATION_CONTEXT(3) GLOBAL_UNCERTAINTY_ASSIGNED_CONTEXT((#545)) GLOBAL_UNIT_ASSIGNED_CONTEXT((#542,#543,#544)) REPRESENTATION_CONTEXT('Context #1',  '3D Context with UNIT and UNCERTAINTY') );
#542 = ( LENGTH_UNIT() NAMED_UNIT(*) SI_UNIT(.MILLI.,.METRE.) );
#543 = ( NAMED_UNIT(*) PLANE_ANGLE_UNIT() SI_UNIT($,.RADIAN.) );
#544 = ( NAMED_UNIT(*) SI_UNIT($,.STERADIAN.) SOLID_ANGLE_UNIT() );
#545 = UNCERTAINTY_MEASURE_WITH_UNIT(LENGTH_MEASURE(1.E-07),#542,  'distance_accuracy_value','confusion accuracy');
#546 = CONTEXT_DEPENDENT_SHAPE_REPRESENTATION(#547,#549);
#547 = ( REPRESENTATION_RELATIONSHIP('','',#540,#10) REPRESENTATION_RELATIONSHIP_WITH_TRANSFORMATION(#548) SHAPE_REPRESENTATION_RELATIONSHIP() );
#548 = ITEM_DEFINED_TRANSFORMATION('','',#11,#23);
#549 = PRODUCT_DEFINITION_SHAPE('Placement','Placement of an item',#550  );
#550 = NEXT_ASSEMBLY_USAGE_OCCURRENCE('3','=>[0:1:1:4]','',#5,#535,$);
#551 = PRODUCT_RELATED_PRODUCT_CATEGORY('part',$,(#537));
#552 = SHAPE_DEFINITION_REPRESENTATION(#553,#559);
#553 = PRODUCT_DEFINITION_SHAPE('','',#554);
#554 = PRODUCT_DEFINITION('design','',#555,#558);
#555 = PRODUCT_DEFINITION_FORMATION('','',#556);
#556 = PRODUCT('TopSilkscreen~KGfU','TopSilkscreen~KGfU','',(#557));
#557 = PRODUCT_CONTEXT('',#2,'mechanical');
#558 = PRODUCT_DEFINITION_CONTEXT('part definition',#2,'design');
#559 = SHAPE_REPRESENTATION('',(#11),#560);
#560 = ( GEOMETRIC_REPRESENTATION_CONTEXT(3) GLOBAL_UNCERTAINTY_ASSIGNED_CONTEXT((#564)) GLOBAL_UNIT_ASSIGNED_CONTEXT((#561,#562,#563)) REPRESENTATION_CONTEXT('Context #1',  '3D Context with UNIT and UNCERTAINTY') );
#561 = ( LENGTH_UNIT() NAMED_UNIT(*) SI_UNIT(.MILLI.,.METRE.) );
#562 = ( NAMED_UNIT(*) PLANE_ANGLE_UNIT() SI_UNIT($,.RADIAN.) );
#563 = ( NAMED_UNIT(*) SI_UNIT($,.STERADIAN.) SOLID_ANGLE_UNIT() );
#564 = UNCERTAINTY_MEASURE_WITH_UNIT(LENGTH_MEASURE(1.E-07),#561,  'distance_accuracy_value','confusion accuracy');
#565 = CONTEXT_DEPENDENT_SHAPE_REPRESENTATION(#566,#568);
#566 = ( REPRESENTATION_RELATIONSHIP('','',#559,#10) REPRESENTATION_RELATIONSHIP_WITH_TRANSFORMATION(#567) SHAPE_REPRESENTATION_RELATIONSHIP() );
#567 = ITEM_DEFINED_TRANSFORMATION('','',#11,#27);
#568 = PRODUCT_DEFINITION_SHAPE('Placement','Placement of an item',#569  );
#569 = NEXT_ASSEMBLY_USAGE_OCCURRENCE('4','=>[0:1:1:5]','',#5,#554,$);
#570 = PRODUCT_RELATED_PRODUCT_CATEGORY('part',$,(#556));
#571 = SHAPE_DEFINITION_REPRESENTATION(#572,#578);
#572 = PRODUCT_DEFINITION_SHAPE('','',#573);
#573 = PRODUCT_DEFINITION('design','',#574,#577);
#574 = PRODUCT_DEFINITION_FORMATION('','',#575);
#575 = PRODUCT('BottomSilkscreen~KGfU','BottomSilkscreen~KGfU','',(#576)  );
#576 = PRODUCT_CONTEXT('',#2,'mechanical');
#577 = PRODUCT_DEFINITION_CONTEXT('part definition',#2,'design');
#578 = SHAPE_REPRESENTATION('',(#11),#579);
#579 = ( GEOMETRIC_REPRESENTATION_CONTEXT(3) GLOBAL_UNCERTAINTY_ASSIGNED_CONTEXT((#583)) GLOBAL_UNIT_ASSIGNED_CONTEXT((#580,#581,#582)) REPRESENTATION_CONTEXT('Context #1',  '3D Context with UNIT and UNCERTAINTY') );
#580 = ( LENGTH_UNIT() NAMED_UNIT(*) SI_UNIT(.MILLI.,.METRE.) );
#581 = ( NAMED_UNIT(*) PLANE_ANGLE_UNIT() SI_UNIT($,.RADIAN.) );
#582 = ( NAMED_UNIT(*) SI_UNIT($,.STERADIAN.) SOLID_ANGLE_UNIT() );
#583 = UNCERTAINTY_MEASURE_WITH_UNIT(LENGTH_MEASURE(1.E-07),#580,  'distance_accuracy_value','confusion accuracy');
#584 = CONTEXT_DEPENDENT_SHAPE_REPRESENTATION(#585,#587);
#585 = ( REPRESENTATION_RELATIONSHIP('','',#578,#10) REPRESENTATION_RELATIONSHIP_WITH_TRANSFORMATION(#586) SHAPE_REPRESENTATION_RELATIONSHIP() );
#586 = ITEM_DEFINED_TRANSFORMATION('','',#11,#31);
#587 = PRODUCT_DEFINITION_SHAPE('Placement','Placement of an item',#588  );
#588 = NEXT_ASSEMBLY_USAGE_OCCURRENCE('5','=>[0:1:1:6]','',#5,#573,$);
#589 = PRODUCT_RELATED_PRODUCT_CATEGORY('part',$,(#575));
#590 = SHAPE_DEFINITION_REPRESENTATION(#591,#597);
#591 = PRODUCT_DEFINITION_SHAPE('','',#592);
#592 = PRODUCT_DEFINITION('design','',#593,#596);
#593 = PRODUCT_DEFINITION_FORMATION('','',#594);
#594 = PRODUCT('TopFpcStiffener~KGfU','TopFpcStiffener~KGfU','',(#595));
#595 = PRODUCT_CONTEXT('',#2,'mechanical');
#596 = PRODUCT_DEFINITION_CONTEXT('part definition',#2,'design');
#597 = SHAPE_REPRESENTATION('',(#11),#598);
#598 = ( GEOMETRIC_REPRESENTATION_CONTEXT(3) GLOBAL_UNCERTAINTY_ASSIGNED_CONTEXT((#602)) GLOBAL_UNIT_ASSIGNED_CONTEXT((#599,#600,#601)) REPRESENTATION_CONTEXT('Context #1',  '3D Context with UNIT and UNCERTAINTY') );
#599 = ( LENGTH_UNIT() NAMED_UNIT(*) SI_UNIT(.MILLI.,.METRE.) );
#600 = ( NAMED_UNIT(*) PLANE_ANGLE_UNIT() SI_UNIT($,.RADIAN.) );
#601 = ( NAMED_UNIT(*) SI_UNIT($,.STERADIAN.) SOLID_ANGLE_UNIT() );
#602 = UNCERTAINTY_MEASURE_WITH_UNIT(LENGTH_MEASURE(1.E-07),#599,  'distance_accuracy_value','confusion accuracy');
#603 = CONTEXT_DEPENDENT_SHAPE_REPRESENTATION(#604,#606);
#604 = ( REPRESENTATION_RELATIONSHIP('','',#597,#10) REPRESENTATION_RELATIONSHIP_WITH_TRANSFORMATION(#605) SHAPE_REPRESENTATION_RELATIONSHIP() );
#605 = ITEM_DEFINED_TRANSFORMATION('','',#11,#35);
#606 = PRODUCT_DEFINITION_SHAPE('Placement','Placement of an item',#607  );
#607 = NEXT_ASSEMBLY_USAGE_OCCURRENCE('6','=>[0:1:1:7]','',#5,#592,$);
#608 = PRODUCT_RELATED_PRODUCT_CATEGORY('part',$,(#594));
#609 = SHAPE_DEFINITION_REPRESENTATION(#610,#616);
#610 = PRODUCT_DEFINITION_SHAPE('','',#611);
#611 = PRODUCT_DEFINITION('design','',#612,#615);
#612 = PRODUCT_DEFINITION_FORMATION('','',#613);
#613 = PRODUCT('BottomFpcStiffener~KGfU','BottomFpcStiffener~KGfU','',(    #614));
#614 = PRODUCT_CONTEXT('',#2,'mechanical');
#615 = PRODUCT_DEFINITION_CONTEXT('part definition',#2,'design');
#616 = SHAPE_REPRESENTATION('',(#11),#617);
#617 = ( GEOMETRIC_REPRESENTATION_CONTEXT(3) GLOBAL_UNCERTAINTY_ASSIGNED_CONTEXT((#621)) GLOBAL_UNIT_ASSIGNED_CONTEXT((#618,#619,#620)) REPRESENTATION_CONTEXT('Context #1',  '3D Context with UNIT and UNCERTAINTY') );
#618 = ( LENGTH_UNIT() NAMED_UNIT(*) SI_UNIT(.MILLI.,.METRE.) );
#619 = ( NAMED_UNIT(*) PLANE_ANGLE_UNIT() SI_UNIT($,.RADIAN.) );
#620 = ( NAMED_UNIT(*) SI_UNIT($,.STERADIAN.) SOLID_ANGLE_UNIT() );
#621 = UNCERTAINTY_MEASURE_WITH_UNIT(LENGTH_MEASURE(1.E-07),#618,  'distance_accuracy_value','confusion accuracy');
#622 = CONTEXT_DEPENDENT_SHAPE_REPRESENTATION(#623,#625);
#623 = ( REPRESENTATION_RELATIONSHIP('','',#616,#10) REPRESENTATION_RELATIONSHIP_WITH_TRANSFORMATION(#624) SHAPE_REPRESENTATION_RELATIONSHIP() );
#624 = ITEM_DEFINED_TRANSFORMATION('','',#11,#39);
#625 = PRODUCT_DEFINITION_SHAPE('Placement','Placement of an item',#626  );
#626 = NEXT_ASSEMBLY_USAGE_OCCURRENCE('7','=>[0:1:1:8]','',#5,#611,$);
#627 = PRODUCT_RELATED_PRODUCT_CATEGORY('part',$,(#613));
#628 = MECHANICAL_DESIGN_GEOMETRIC_PRESENTATION_REPRESENTATION('',(#629,    #639,#647,#654,#661,#668,#675,#682,#689,#696,#703,#710,#717),#503);
#629 = STYLED_ITEM('color',(#630),#57);
#630 = PRESENTATION_STYLE_ASSIGNMENT((#631,#637));
#631 = SURFACE_STYLE_USAGE(.BOTH.,#632);
#632 = SURFACE_SIDE_STYLE('',(#633));
#633 = SURFACE_STYLE_FILL_AREA(#634);
#634 = FILL_AREA_STYLE('',(#635));
#635 = FILL_AREA_STYLE_COLOUR('',#636);
#636 = COLOUR_RGB('',0.,0.417002959305,0.637991923926);
#637 = CURVE_STYLE('',#638,POSITIVE_LENGTH_MEASURE(0.1),#636);
#638 = DRAUGHTING_PRE_DEFINED_CURVE_FONT('continuous');
#639 = OVER_RIDING_STYLED_ITEM('overriding color',(#640),#59,#629);
#640 = PRESENTATION_STYLE_ASSIGNMENT((#641));
#641 = SURFACE_STYLE_USAGE(.BOTH.,#642);
#642 = SURFACE_SIDE_STYLE('',(#643));
#643 = SURFACE_STYLE_FILL_AREA(#644);
#644 = FILL_AREA_STYLE('',(#645));
#645 = FILL_AREA_STYLE_COLOUR('',#646);
#646 = COLOUR_RGB('',0.937179583391,0.9357410338,0.649182888601);
#647 = OVER_RIDING_STYLED_ITEM('overriding color',(#648),#99,#629);
#648 = PRESENTATION_STYLE_ASSIGNMENT((#649));
#649 = SURFACE_STYLE_USAGE(.BOTH.,#650);
#650 = SURFACE_SIDE_STYLE('',(#651));
#651 = SURFACE_STYLE_FILL_AREA(#652);
#652 = FILL_AREA_STYLE('',(#653));
#653 = FILL_AREA_STYLE_COLOUR('',#646);
#654 = OVER_RIDING_STYLED_ITEM('overriding color',(#655),#130,#629);
#655 = PRESENTATION_STYLE_ASSIGNMENT((#656));
#656 = SURFACE_STYLE_USAGE(.BOTH.,#657);
#657 = SURFACE_SIDE_STYLE('',(#658));
#658 = SURFACE_STYLE_FILL_AREA(#659);
#659 = FILL_AREA_STYLE('',(#660));
#660 = FILL_AREA_STYLE_COLOUR('',#646);
#661 = OVER_RIDING_STYLED_ITEM('overriding color',(#662),#161,#629);
#662 = PRESENTATION_STYLE_ASSIGNMENT((#663));
#663 = SURFACE_STYLE_USAGE(.BOTH.,#664);
#664 = SURFACE_SIDE_STYLE('',(#665));
#665 = SURFACE_STYLE_FILL_AREA(#666);
#666 = FILL_AREA_STYLE('',(#667));
#667 = FILL_AREA_STYLE_COLOUR('',#646);
#668 = OVER_RIDING_STYLED_ITEM('overriding color',(#669),#183,#629);
#669 = PRESENTATION_STYLE_ASSIGNMENT((#670));
#670 = SURFACE_STYLE_USAGE(.BOTH.,#671);
#671 = SURFACE_SIDE_STYLE('',(#672));
#672 = SURFACE_STYLE_FILL_AREA(#673);
#673 = FILL_AREA_STYLE('',(#674));
#674 = FILL_AREA_STYLE_COLOUR('',#646);
#675 = OVER_RIDING_STYLED_ITEM('overriding color',(#676),#225,#629);
#676 = PRESENTATION_STYLE_ASSIGNMENT((#677));
#677 = SURFACE_STYLE_USAGE(.BOTH.,#678);
#678 = SURFACE_SIDE_STYLE('',(#679));
#679 = SURFACE_STYLE_FILL_AREA(#680);
#680 = FILL_AREA_STYLE('',(#681));
#681 = FILL_AREA_STYLE_COLOUR('',#646);
#682 = OVER_RIDING_STYLED_ITEM('overriding color',(#683),#249,#629);
#683 = PRESENTATION_STYLE_ASSIGNMENT((#684));
#684 = SURFACE_STYLE_USAGE(.BOTH.,#685);
#685 = SURFACE_SIDE_STYLE('',(#686));
#686 = SURFACE_STYLE_FILL_AREA(#687);
#687 = FILL_AREA_STYLE('',(#688));
#688 = FILL_AREA_STYLE_COLOUR('',#646);
#689 = OVER_RIDING_STYLED_ITEM('overriding color',(#690),#291,#629);
#690 = PRESENTATION_STYLE_ASSIGNMENT((#691));
#691 = SURFACE_STYLE_USAGE(.BOTH.,#692);
#692 = SURFACE_SIDE_STYLE('',(#693));
#693 = SURFACE_STYLE_FILL_AREA(#694);
#694 = FILL_AREA_STYLE('',(#695));
#695 = FILL_AREA_STYLE_COLOUR('',#646);
#696 = OVER_RIDING_STYLED_ITEM('overriding color',(#697),#315,#629);
#697 = PRESENTATION_STYLE_ASSIGNMENT((#698));
#698 = SURFACE_STYLE_USAGE(.BOTH.,#699);
#699 = SURFACE_SIDE_STYLE('',(#700));
#700 = SURFACE_STYLE_FILL_AREA(#701);
#701 = FILL_AREA_STYLE('',(#702));
#702 = FILL_AREA_STYLE_COLOUR('',#646);
#703 = OVER_RIDING_STYLED_ITEM('overriding color',(#704),#357,#629);
#704 = PRESENTATION_STYLE_ASSIGNMENT((#705));
#705 = SURFACE_STYLE_USAGE(.BOTH.,#706);
#706 = SURFACE_SIDE_STYLE('',(#707));
#707 = SURFACE_STYLE_FILL_AREA(#708);
#708 = FILL_AREA_STYLE('',(#709));
#709 = FILL_AREA_STYLE_COLOUR('',#646);
#710 = OVER_RIDING_STYLED_ITEM('overriding color',(#711),#381,#629);
#711 = PRESENTATION_STYLE_ASSIGNMENT((#712));
#712 = SURFACE_STYLE_USAGE(.BOTH.,#713);
#713 = SURFACE_SIDE_STYLE('',(#714));
#714 = SURFACE_STYLE_FILL_AREA(#715);
#715 = FILL_AREA_STYLE('',(#716));
#716 = FILL_AREA_STYLE_COLOUR('',#646);
#717 = OVER_RIDING_STYLED_ITEM('overriding color',(#718),#423,#629);
#718 = PRESENTATION_STYLE_ASSIGNMENT((#719));
#719 = SURFACE_STYLE_USAGE(.BOTH.,#720);
#720 = SURFACE_SIDE_STYLE('',(#721));
#721 = SURFACE_STYLE_FILL_AREA(#722);
#722 = FILL_AREA_STYLE('',(#723));
#723 = FILL_AREA_STYLE_COLOUR('',#646);


ENDSEC;
END-ISO-10303-21;