ISO-10303-21;
HEADER;
/* Generated by software containing ST-Developer
 * from STEP Tools, Inc. (www.steptools.com) 
 */
/* OPTION: using custom renumber hook */

FILE_DESCRIPTION(
/* description */ ('STEP AP242 Edition 2',
'CAx-IF Rec.Pracs.---Representation and Presentation of Product Manufa
cturing Information (PMI)---4.0---2014-10-13',
'CAx-IF Rec.Pracs.---3D Tessellated Geometry---0.4---2014-09-14','2;1',
'CAx-IF Rec.Pracs.---User Defined Attributes---1.5---2016-08-15'),
/* implementation_level */ '2;1');

FILE_NAME(
/* name */ 'part studio 1 - body',
/* time_stamp */ '2026-09-24T05:55:48Z',
/* author */ (''),
/* organization */ (''),
/* preprocessor_version */ 'ST-DEVELOPER v20',
/* originating_system */ 'ONSHAPE BY PTC INC, 1.221',
/* authorisation */ '  ');

FILE_SCHEMA (('AP242_MANAGED_MODEL_BASED_3D_ENGINEERING_MIM_LF { 1 0 10303 442 3 1 4 }'));
ENDSEC;

DATA;
#10=SHAPE_REPRESENTATION_RELATIONSHIP('','',#922,#11);
#11=ADVANCED_BREP_SHAPE_REPRESENTATION('',(#920),#1498);
#12=SPHERICAL_SURFACE('',#939,0.0015);
#13=SPHERICAL_SURFACE('',#944,0.0015);
#14=SPHERICAL_SURFACE('',#949,0.0015);
#15=SPHERICAL_SURFACE('',#954,0.0015);
#16=CIRCLE('',#928,0.0015);
#17=CIRCLE('',#929,0.0015);
#18=CIRCLE('',#930,0.0015);
#19=CIRCLE('',#931,0.0015);
#20=CIRCLE('',#933,0.0015);
#21=CIRCLE('',#934,0.0015);
#22=CIRCLE('',#935,0.0015);
#23=CIRCLE('',#937,0.0015);
#24=CIRCLE('',#938,0.0015);
#25=CIRCLE('',#940,0.0015);
#26=CIRCLE('',#941,0.0015);
#27=CIRCLE('',#943,0.0015);
#28=CIRCLE('',#945,0.0015);
#29=CIRCLE('',#946,0.0015);
#30=CIRCLE('',#948,0.0015);
#31=CIRCLE('',#950,0.0015);
#32=CIRCLE('',#951,0.0015);
#33=CIRCLE('',#953,0.0015);
#34=CIRCLE('',#957,0.0015);
#35=CIRCLE('',#958,0.0015);
#36=CYLINDRICAL_SURFACE('',#927,0.0015);
#37=CYLINDRICAL_SURFACE('',#936,0.0015);
#38=CYLINDRICAL_SURFACE('',#942,0.0015);
#39=CYLINDRICAL_SURFACE('',#947,0.0015);
#40=CYLINDRICAL_SURFACE('',#952,0.0015);
#41=CYLINDRICAL_SURFACE('',#955,0.0015);
#42=CYLINDRICAL_SURFACE('',#956,0.0015);
#43=CYLINDRICAL_SURFACE('',#959,0.0015);
#44=ORIENTED_EDGE('',*,*,#298,.F.);
#45=ORIENTED_EDGE('',*,*,#299,.T.);
#46=ORIENTED_EDGE('',*,*,#300,.T.);
#47=ORIENTED_EDGE('',*,*,#301,.T.);
#48=ORIENTED_EDGE('',*,*,#302,.T.);
#49=ORIENTED_EDGE('',*,*,#303,.T.);
#50=ORIENTED_EDGE('',*,*,#304,.T.);
#51=ORIENTED_EDGE('',*,*,#305,.F.);
#52=ORIENTED_EDGE('',*,*,#306,.T.);
#53=ORIENTED_EDGE('',*,*,#307,.F.);
#54=ORIENTED_EDGE('',*,*,#308,.F.);
#55=ORIENTED_EDGE('',*,*,#309,.T.);
#56=ORIENTED_EDGE('',*,*,#310,.F.);
#57=ORIENTED_EDGE('',*,*,#311,.T.);
#58=ORIENTED_EDGE('',*,*,#312,.T.);
#59=ORIENTED_EDGE('',*,*,#313,.F.);
#60=ORIENTED_EDGE('',*,*,#314,.T.);
#61=ORIENTED_EDGE('',*,*,#315,.T.);
#62=ORIENTED_EDGE('',*,*,#316,.T.);
#63=ORIENTED_EDGE('',*,*,#317,.T.);
#64=ORIENTED_EDGE('',*,*,#318,.F.);
#65=ORIENTED_EDGE('',*,*,#319,.T.);
#66=ORIENTED_EDGE('',*,*,#320,.T.);
#67=ORIENTED_EDGE('',*,*,#321,.F.);
#68=ORIENTED_EDGE('',*,*,#322,.F.);
#69=ORIENTED_EDGE('',*,*,#323,.T.);
#70=ORIENTED_EDGE('',*,*,#324,.T.);
#71=ORIENTED_EDGE('',*,*,#325,.T.);
#72=ORIENTED_EDGE('',*,*,#326,.F.);
#73=ORIENTED_EDGE('',*,*,#327,.T.);
#74=ORIENTED_EDGE('',*,*,#328,.T.);
#75=ORIENTED_EDGE('',*,*,#329,.F.);
#76=ORIENTED_EDGE('',*,*,#325,.F.);
#77=ORIENTED_EDGE('',*,*,#330,.T.);
#78=ORIENTED_EDGE('',*,*,#331,.F.);
#79=ORIENTED_EDGE('',*,*,#332,.F.);
#80=ORIENTED_EDGE('',*,*,#298,.T.);
#81=ORIENTED_EDGE('',*,*,#333,.T.);
#82=ORIENTED_EDGE('',*,*,#332,.T.);
#83=ORIENTED_EDGE('',*,*,#334,.T.);
#84=ORIENTED_EDGE('',*,*,#335,.T.);
#85=ORIENTED_EDGE('',*,*,#317,.F.);
#86=ORIENTED_EDGE('',*,*,#336,.T.);
#87=ORIENTED_EDGE('',*,*,#337,.F.);
#88=ORIENTED_EDGE('',*,*,#338,.T.);
#89=ORIENTED_EDGE('',*,*,#339,.F.);
#90=ORIENTED_EDGE('',*,*,#340,.F.);
#91=ORIENTED_EDGE('',*,*,#341,.F.);
#92=ORIENTED_EDGE('',*,*,#342,.T.);
#93=ORIENTED_EDGE('',*,*,#343,.F.);
#94=ORIENTED_EDGE('',*,*,#342,.F.);
#95=ORIENTED_EDGE('',*,*,#344,.T.);
#96=ORIENTED_EDGE('',*,*,#345,.F.);
#97=ORIENTED_EDGE('',*,*,#344,.F.);
#98=ORIENTED_EDGE('',*,*,#346,.F.);
#99=ORIENTED_EDGE('',*,*,#347,.T.);
#100=ORIENTED_EDGE('',*,*,#315,.F.);
#101=ORIENTED_EDGE('',*,*,#347,.F.);
#102=ORIENTED_EDGE('',*,*,#348,.T.);
#103=ORIENTED_EDGE('',*,*,#349,.F.);
#104=ORIENTED_EDGE('',*,*,#348,.F.);
#105=ORIENTED_EDGE('',*,*,#350,.F.);
#106=ORIENTED_EDGE('',*,*,#351,.T.);
#107=ORIENTED_EDGE('',*,*,#352,.F.);
#108=ORIENTED_EDGE('',*,*,#351,.F.);
#109=ORIENTED_EDGE('',*,*,#353,.T.);
#110=ORIENTED_EDGE('',*,*,#354,.F.);
#111=ORIENTED_EDGE('',*,*,#353,.F.);
#112=ORIENTED_EDGE('',*,*,#355,.F.);
#113=ORIENTED_EDGE('',*,*,#356,.T.);
#114=ORIENTED_EDGE('',*,*,#324,.F.);
#115=ORIENTED_EDGE('',*,*,#356,.F.);
#116=ORIENTED_EDGE('',*,*,#340,.T.);
#117=ORIENTED_EDGE('',*,*,#330,.F.);
#118=ORIENTED_EDGE('',*,*,#357,.F.);
#119=ORIENTED_EDGE('',*,*,#345,.T.);
#120=ORIENTED_EDGE('',*,*,#314,.F.);
#121=ORIENTED_EDGE('',*,*,#335,.F.);
#122=ORIENTED_EDGE('',*,*,#358,.F.);
#123=ORIENTED_EDGE('',*,*,#359,.F.);
#124=ORIENTED_EDGE('',*,*,#338,.F.);
#125=ORIENTED_EDGE('',*,*,#360,.F.);
#126=ORIENTED_EDGE('',*,*,#354,.T.);
#127=ORIENTED_EDGE('',*,*,#323,.F.);
#128=ORIENTED_EDGE('',*,*,#361,.F.);
#129=ORIENTED_EDGE('',*,*,#362,.F.);
#130=ORIENTED_EDGE('',*,*,#316,.F.);
#131=ORIENTED_EDGE('',*,*,#349,.T.);
#132=ORIENTED_EDGE('',*,*,#363,.F.);
#133=ORIENTED_EDGE('',*,*,#336,.F.);
#134=ORIENTED_EDGE('',*,*,#363,.T.);
#135=ORIENTED_EDGE('',*,*,#352,.T.);
#136=ORIENTED_EDGE('',*,*,#360,.T.);
#137=ORIENTED_EDGE('',*,*,#337,.T.);
#138=ORIENTED_EDGE('',*,*,#331,.T.);
#139=ORIENTED_EDGE('',*,*,#343,.T.);
#140=ORIENTED_EDGE('',*,*,#357,.T.);
#141=ORIENTED_EDGE('',*,*,#334,.F.);
#142=ORIENTED_EDGE('',*,*,#364,.F.);
#143=ORIENTED_EDGE('',*,*,#365,.T.);
#144=ORIENTED_EDGE('',*,*,#366,.F.);
#145=ORIENTED_EDGE('',*,*,#367,.F.);
#146=ORIENTED_EDGE('',*,*,#303,.F.);
#147=ORIENTED_EDGE('',*,*,#368,.T.);
#148=ORIENTED_EDGE('',*,*,#367,.T.);
#149=ORIENTED_EDGE('',*,*,#369,.T.);
#150=ORIENTED_EDGE('',*,*,#370,.F.);
#151=ORIENTED_EDGE('',*,*,#305,.T.);
#152=ORIENTED_EDGE('',*,*,#371,.F.);
#153=ORIENTED_EDGE('',*,*,#365,.F.);
#154=ORIENTED_EDGE('',*,*,#372,.T.);
#155=ORIENTED_EDGE('',*,*,#373,.T.);
#156=ORIENTED_EDGE('',*,*,#374,.F.);
#157=ORIENTED_EDGE('',*,*,#375,.F.);
#158=ORIENTED_EDGE('',*,*,#376,.T.);
#159=ORIENTED_EDGE('',*,*,#377,.F.);
#160=ORIENTED_EDGE('',*,*,#378,.F.);
#161=ORIENTED_EDGE('',*,*,#379,.T.);
#162=ORIENTED_EDGE('',*,*,#375,.T.);
#163=ORIENTED_EDGE('',*,*,#380,.F.);
#164=ORIENTED_EDGE('',*,*,#381,.F.);
#165=ORIENTED_EDGE('',*,*,#382,.T.);
#166=ORIENTED_EDGE('',*,*,#377,.T.);
#167=ORIENTED_EDGE('',*,*,#383,.F.);
#168=ORIENTED_EDGE('',*,*,#384,.F.);
#169=ORIENTED_EDGE('',*,*,#385,.F.);
#170=ORIENTED_EDGE('',*,*,#386,.F.);
#171=ORIENTED_EDGE('',*,*,#387,.T.);
#172=ORIENTED_EDGE('',*,*,#388,.F.);
#173=ORIENTED_EDGE('',*,*,#380,.T.);
#174=ORIENTED_EDGE('',*,*,#389,.T.);
#175=ORIENTED_EDGE('',*,*,#373,.F.);
#176=ORIENTED_EDGE('',*,*,#390,.F.);
#177=ORIENTED_EDGE('',*,*,#391,.F.);
#178=ORIENTED_EDGE('',*,*,#392,.F.);
#179=ORIENTED_EDGE('',*,*,#393,.F.);
#180=ORIENTED_EDGE('',*,*,#394,.T.);
#181=ORIENTED_EDGE('',*,*,#395,.T.);
#182=ORIENTED_EDGE('',*,*,#388,.T.);
#183=ORIENTED_EDGE('',*,*,#396,.F.);
#184=ORIENTED_EDGE('',*,*,#397,.F.);
#185=ORIENTED_EDGE('',*,*,#398,.T.);
#186=ORIENTED_EDGE('',*,*,#384,.T.);
#187=ORIENTED_EDGE('',*,*,#372,.F.);
#188=ORIENTED_EDGE('',*,*,#369,.F.);
#189=ORIENTED_EDGE('',*,*,#366,.T.);
#190=ORIENTED_EDGE('',*,*,#371,.T.);
#191=ORIENTED_EDGE('',*,*,#304,.F.);
#192=ORIENTED_EDGE('',*,*,#389,.F.);
#193=ORIENTED_EDGE('',*,*,#383,.T.);
#194=ORIENTED_EDGE('',*,*,#376,.F.);
#195=ORIENTED_EDGE('',*,*,#374,.T.);
#196=ORIENTED_EDGE('',*,*,#341,.T.);
#197=ORIENTED_EDGE('',*,*,#355,.T.);
#198=ORIENTED_EDGE('',*,*,#350,.T.);
#199=ORIENTED_EDGE('',*,*,#346,.T.);
#200=ORIENTED_EDGE('',*,*,#329,.T.);
#201=ORIENTED_EDGE('',*,*,#399,.F.);
#202=ORIENTED_EDGE('',*,*,#306,.F.);
#203=ORIENTED_EDGE('',*,*,#370,.T.);
#204=ORIENTED_EDGE('',*,*,#364,.T.);
#205=ORIENTED_EDGE('',*,*,#368,.F.);
#206=ORIENTED_EDGE('',*,*,#302,.F.);
#207=ORIENTED_EDGE('',*,*,#400,.T.);
#208=ORIENTED_EDGE('',*,*,#361,.T.);
#209=ORIENTED_EDGE('',*,*,#322,.T.);
#210=ORIENTED_EDGE('',*,*,#401,.F.);
#211=ORIENTED_EDGE('',*,*,#308,.T.);
#212=ORIENTED_EDGE('',*,*,#402,.T.);
#213=ORIENTED_EDGE('',*,*,#327,.F.);
#214=ORIENTED_EDGE('',*,*,#326,.T.);
#215=ORIENTED_EDGE('',*,*,#333,.F.);
#216=ORIENTED_EDGE('',*,*,#309,.F.);
#217=ORIENTED_EDGE('',*,*,#401,.T.);
#218=ORIENTED_EDGE('',*,*,#359,.T.);
#219=ORIENTED_EDGE('',*,*,#403,.F.);
#220=ORIENTED_EDGE('',*,*,#299,.F.);
#221=ORIENTED_EDGE('',*,*,#339,.T.);
#222=ORIENTED_EDGE('',*,*,#358,.T.);
#223=ORIENTED_EDGE('',*,*,#404,.F.);
#224=ORIENTED_EDGE('',*,*,#300,.F.);
#225=ORIENTED_EDGE('',*,*,#403,.T.);
#226=ORIENTED_EDGE('',*,*,#362,.T.);
#227=ORIENTED_EDGE('',*,*,#400,.F.);
#228=ORIENTED_EDGE('',*,*,#301,.F.);
#229=ORIENTED_EDGE('',*,*,#404,.T.);
#230=ORIENTED_EDGE('',*,*,#402,.F.);
#231=ORIENTED_EDGE('',*,*,#307,.T.);
#232=ORIENTED_EDGE('',*,*,#399,.T.);
#233=ORIENTED_EDGE('',*,*,#328,.F.);
#234=ORIENTED_EDGE('',*,*,#310,.T.);
#235=ORIENTED_EDGE('',*,*,#405,.T.);
#236=ORIENTED_EDGE('',*,*,#319,.F.);
#237=ORIENTED_EDGE('',*,*,#406,.F.);
#238=ORIENTED_EDGE('',*,*,#406,.T.);
#239=ORIENTED_EDGE('',*,*,#318,.T.);
#240=ORIENTED_EDGE('',*,*,#407,.F.);
#241=ORIENTED_EDGE('',*,*,#311,.F.);
#242=ORIENTED_EDGE('',*,*,#407,.T.);
#243=ORIENTED_EDGE('',*,*,#321,.T.);
#244=ORIENTED_EDGE('',*,*,#408,.F.);
#245=ORIENTED_EDGE('',*,*,#312,.F.);
#246=ORIENTED_EDGE('',*,*,#313,.T.);
#247=ORIENTED_EDGE('',*,*,#408,.T.);
#248=ORIENTED_EDGE('',*,*,#320,.F.);
#249=ORIENTED_EDGE('',*,*,#405,.F.);
#250=ORIENTED_EDGE('',*,*,#409,.T.);
#251=ORIENTED_EDGE('',*,*,#396,.T.);
#252=ORIENTED_EDGE('',*,*,#387,.F.);
#253=ORIENTED_EDGE('',*,*,#410,.T.);
#254=ORIENTED_EDGE('',*,*,#398,.F.);
#255=ORIENTED_EDGE('',*,*,#411,.F.);
#256=ORIENTED_EDGE('',*,*,#412,.F.);
#257=ORIENTED_EDGE('',*,*,#385,.T.);
#258=ORIENTED_EDGE('',*,*,#411,.T.);
#259=ORIENTED_EDGE('',*,*,#397,.T.);
#260=ORIENTED_EDGE('',*,*,#409,.F.);
#261=ORIENTED_EDGE('',*,*,#413,.T.);
#262=ORIENTED_EDGE('',*,*,#410,.F.);
#263=ORIENTED_EDGE('',*,*,#386,.T.);
#264=ORIENTED_EDGE('',*,*,#412,.T.);
#265=ORIENTED_EDGE('',*,*,#413,.F.);
#266=ORIENTED_EDGE('',*,*,#414,.T.);
#267=ORIENTED_EDGE('',*,*,#392,.T.);
#268=ORIENTED_EDGE('',*,*,#415,.F.);
#269=ORIENTED_EDGE('',*,*,#416,.T.);
#270=ORIENTED_EDGE('',*,*,#415,.T.);
#271=ORIENTED_EDGE('',*,*,#391,.T.);
#272=ORIENTED_EDGE('',*,*,#417,.F.);
#273=ORIENTED_EDGE('',*,*,#418,.T.);
#274=ORIENTED_EDGE('',*,*,#417,.T.);
#275=ORIENTED_EDGE('',*,*,#390,.T.);
#276=ORIENTED_EDGE('',*,*,#379,.F.);
#277=ORIENTED_EDGE('',*,*,#419,.T.);
#278=ORIENTED_EDGE('',*,*,#395,.F.);
#279=ORIENTED_EDGE('',*,*,#420,.F.);
#280=ORIENTED_EDGE('',*,*,#421,.F.);
#281=ORIENTED_EDGE('',*,*,#381,.T.);
#282=ORIENTED_EDGE('',*,*,#394,.F.);
#283=ORIENTED_EDGE('',*,*,#422,.F.);
#284=ORIENTED_EDGE('',*,*,#423,.F.);
#285=ORIENTED_EDGE('',*,*,#420,.T.);
#286=ORIENTED_EDGE('',*,*,#422,.T.);
#287=ORIENTED_EDGE('',*,*,#393,.T.);
#288=ORIENTED_EDGE('',*,*,#414,.F.);
#289=ORIENTED_EDGE('',*,*,#424,.T.);
#290=ORIENTED_EDGE('',*,*,#416,.F.);
#291=ORIENTED_EDGE('',*,*,#418,.F.);
#292=ORIENTED_EDGE('',*,*,#419,.F.);
#293=ORIENTED_EDGE('',*,*,#378,.T.);
#294=ORIENTED_EDGE('',*,*,#382,.F.);
#295=ORIENTED_EDGE('',*,*,#421,.T.);
#296=ORIENTED_EDGE('',*,*,#423,.T.);
#297=ORIENTED_EDGE('',*,*,#424,.F.);
#298=EDGE_CURVE('',#425,#426,#505,.T.);
#299=EDGE_CURVE('',#425,#427,#506,.F.);
#300=EDGE_CURVE('',#427,#428,#507,.T.);
#301=EDGE_CURVE('',#428,#429,#508,.T.);
#302=EDGE_CURVE('',#429,#430,#509,.T.);
#303=EDGE_CURVE('',#430,#431,#510,.T.);
#304=EDGE_CURVE('',#431,#432,#511,.T.);
#305=EDGE_CURVE('',#433,#432,#512,.T.);
#306=EDGE_CURVE('',#433,#434,#513,.T.);
#307=EDGE_CURVE('',#435,#434,#514,.T.);
#308=EDGE_CURVE('',#436,#435,#515,.T.);
#309=EDGE_CURVE('',#436,#426,#516,.F.);
#310=EDGE_CURVE('',#437,#438,#517,.T.);
#311=EDGE_CURVE('',#437,#439,#518,.T.);
#312=EDGE_CURVE('',#439,#440,#519,.T.);
#313=EDGE_CURVE('',#438,#440,#520,.T.);
#314=EDGE_CURVE('',#441,#442,#521,.F.);
#315=EDGE_CURVE('',#442,#443,#522,.F.);
#316=EDGE_CURVE('',#443,#444,#523,.F.);
#317=EDGE_CURVE('',#444,#441,#524,.T.);
#318=EDGE_CURVE('',#445,#446,#525,.T.);
#319=EDGE_CURVE('',#445,#447,#526,.T.);
#320=EDGE_CURVE('',#447,#448,#527,.T.);
#321=EDGE_CURVE('',#446,#448,#528,.T.);
#322=EDGE_CURVE('',#449,#450,#529,.T.);
#323=EDGE_CURVE('',#449,#451,#530,.F.);
#324=EDGE_CURVE('',#451,#452,#531,.F.);
#325=EDGE_CURVE('',#452,#450,#532,.F.);
#326=EDGE_CURVE('',#453,#454,#533,.F.);
#327=EDGE_CURVE('',#453,#455,#16,.F.);
#328=EDGE_CURVE('',#455,#456,#534,.T.);
#329=EDGE_CURVE('',#450,#456,#17,.F.);
#330=EDGE_CURVE('',#452,#457,#18,.F.);
#331=EDGE_CURVE('',#458,#457,#535,.T.);
#332=EDGE_CURVE('',#454,#458,#19,.T.);
#333=EDGE_CURVE('',#426,#454,#536,.T.);
#334=EDGE_CURVE('',#458,#459,#537,.T.);
#335=EDGE_CURVE('',#459,#441,#20,.T.);
#336=EDGE_CURVE('',#444,#460,#21,.T.);
#337=EDGE_CURVE('',#461,#460,#538,.T.);
#338=EDGE_CURVE('',#461,#462,#22,.T.);
#339=EDGE_CURVE('',#425,#462,#539,.T.);
#340=EDGE_CURVE('',#463,#457,#23,.T.);
#341=EDGE_CURVE('',#464,#463,#540,.T.);
#342=EDGE_CURVE('',#464,#465,#24,.T.);
#343=EDGE_CURVE('',#457,#465,#541,.F.);
#344=EDGE_CURVE('',#464,#442,#25,.T.);
#345=EDGE_CURVE('',#465,#442,#26,.F.);
#346=EDGE_CURVE('',#466,#464,#542,.T.);
#347=EDGE_CURVE('',#466,#443,#27,.T.);
#348=EDGE_CURVE('',#466,#467,#28,.T.);
#349=EDGE_CURVE('',#443,#467,#29,.F.);
#350=EDGE_CURVE('',#468,#466,#543,.T.);
#351=EDGE_CURVE('',#468,#469,#30,.T.);
#352=EDGE_CURVE('',#467,#469,#544,.F.);
#353=EDGE_CURVE('',#468,#451,#31,.T.);
#354=EDGE_CURVE('',#469,#451,#32,.F.);
#355=EDGE_CURVE('',#463,#468,#545,.T.);
#356=EDGE_CURVE('',#463,#452,#33,.T.);
#357=EDGE_CURVE('',#465,#459,#546,.T.);
#358=EDGE_CURVE('',#470,#471,#34,.F.);
#359=EDGE_CURVE('',#462,#470,#547,.F.);
#360=EDGE_CURVE('',#469,#461,#548,.T.);
#361=EDGE_CURVE('',#472,#449,#35,.F.);
#362=EDGE_CURVE('',#471,#472,#549,.T.);
#363=EDGE_CURVE('',#460,#467,#550,.T.);
#364=EDGE_CURVE('',#473,#474,#551,.T.);
#365=EDGE_CURVE('',#473,#475,#552,.T.);
#366=EDGE_CURVE('',#476,#475,#553,.T.);
#367=EDGE_CURVE('',#474,#476,#554,.T.);
#368=EDGE_CURVE('',#430,#474,#555,.T.);
#369=EDGE_CURVE('',#476,#431,#556,.T.);
#370=EDGE_CURVE('',#433,#473,#557,.T.);
#371=EDGE_CURVE('',#475,#432,#558,.T.);
#372=EDGE_CURVE('',#477,#478,#559,.T.);
#373=EDGE_CURVE('',#478,#479,#560,.T.);
#374=EDGE_CURVE('',#480,#479,#561,.T.);
#375=EDGE_CURVE('',#477,#480,#562,.T.);
#376=EDGE_CURVE('',#480,#481,#563,.T.);
#377=EDGE_CURVE('',#482,#481,#564,.T.);
#378=EDGE_CURVE('',#483,#482,#565,.T.);
#379=EDGE_CURVE('',#483,#477,#566,.T.);
#380=EDGE_CURVE('',#484,#485,#567,.T.);
#381=EDGE_CURVE('',#486,#484,#568,.T.);
#382=EDGE_CURVE('',#486,#482,#569,.T.);
#383=EDGE_CURVE('',#485,#481,#570,.T.);
#384=EDGE_CURVE('',#487,#478,#571,.T.);
#385=EDGE_CURVE('',#488,#487,#572,.T.);
#386=EDGE_CURVE('',#489,#488,#573,.T.);
#387=EDGE_CURVE('',#489,#490,#574,.T.);
#388=EDGE_CURVE('',#484,#490,#575,.T.);
#389=EDGE_CURVE('',#485,#479,#576,.T.);
#390=EDGE_CURVE('',#491,#477,#577,.T.);
#391=EDGE_CURVE('',#492,#491,#578,.T.);
#392=EDGE_CURVE('',#493,#492,#579,.T.);
#393=EDGE_CURVE('',#494,#493,#580,.T.);
#394=EDGE_CURVE('',#494,#495,#581,.T.);
#395=EDGE_CURVE('',#495,#484,#582,.T.);
#396=EDGE_CURVE('',#496,#490,#583,.T.);
#397=EDGE_CURVE('',#497,#496,#584,.T.);
#398=EDGE_CURVE('',#497,#487,#585,.T.);
#399=EDGE_CURVE('',#434,#456,#586,.T.);
#400=EDGE_CURVE('',#429,#472,#587,.T.);
#401=EDGE_CURVE('',#436,#453,#588,.T.);
#402=EDGE_CURVE('',#435,#455,#589,.T.);
#403=EDGE_CURVE('',#427,#470,#590,.T.);
#404=EDGE_CURVE('',#428,#471,#591,.T.);
#405=EDGE_CURVE('',#438,#447,#592,.T.);
#406=EDGE_CURVE('',#437,#445,#593,.T.);
#407=EDGE_CURVE('',#439,#446,#594,.T.);
#408=EDGE_CURVE('',#440,#448,#595,.T.);
#409=EDGE_CURVE('',#498,#496,#596,.T.);
#410=EDGE_CURVE('',#489,#498,#597,.T.);
#411=EDGE_CURVE('',#499,#497,#598,.T.);
#412=EDGE_CURVE('',#488,#499,#599,.T.);
#413=EDGE_CURVE('',#498,#499,#600,.T.);
#414=EDGE_CURVE('',#500,#493,#601,.T.);
#415=EDGE_CURVE('',#501,#492,#602,.T.);
#416=EDGE_CURVE('',#501,#500,#603,.T.);
#417=EDGE_CURVE('',#502,#491,#604,.T.);
#418=EDGE_CURVE('',#502,#501,#605,.T.);
#419=EDGE_CURVE('',#483,#502,#606,.T.);
#420=EDGE_CURVE('',#503,#495,#607,.T.);
#421=EDGE_CURVE('',#486,#503,#608,.T.);
#422=EDGE_CURVE('',#504,#494,#609,.T.);
#423=EDGE_CURVE('',#503,#504,#610,.T.);
#424=EDGE_CURVE('',#500,#504,#611,.T.);
#425=VERTEX_POINT('',#1243);
#426=VERTEX_POINT('',#1244);
#427=VERTEX_POINT('',#1246);
#428=VERTEX_POINT('',#1248);
#429=VERTEX_POINT('',#1250);
#430=VERTEX_POINT('',#1252);
#431=VERTEX_POINT('',#1254);
#432=VERTEX_POINT('',#1256);
#433=VERTEX_POINT('',#1258);
#434=VERTEX_POINT('',#1260);
#435=VERTEX_POINT('',#1262);
#436=VERTEX_POINT('',#1264);
#437=VERTEX_POINT('',#1267);
#438=VERTEX_POINT('',#1268);
#439=VERTEX_POINT('',#1270);
#440=VERTEX_POINT('',#1272);
#441=VERTEX_POINT('',#1276);
#442=VERTEX_POINT('',#1277);
#443=VERTEX_POINT('',#1279);
#444=VERTEX_POINT('',#1281);
#445=VERTEX_POINT('',#1284);
#446=VERTEX_POINT('',#1285);
#447=VERTEX_POINT('',#1287);
#448=VERTEX_POINT('',#1289);
#449=VERTEX_POINT('',#1293);
#450=VERTEX_POINT('',#1294);
#451=VERTEX_POINT('',#1296);
#452=VERTEX_POINT('',#1298);
#453=VERTEX_POINT('',#1302);
#454=VERTEX_POINT('',#1303);
#455=VERTEX_POINT('',#1305);
#456=VERTEX_POINT('',#1307);
#457=VERTEX_POINT('',#1310);
#458=VERTEX_POINT('',#1312);
#459=VERTEX_POINT('',#1317);
#460=VERTEX_POINT('',#1320);
#461=VERTEX_POINT('',#1322);
#462=VERTEX_POINT('',#1324);
#463=VERTEX_POINT('',#1328);
#464=VERTEX_POINT('',#1330);
#465=VERTEX_POINT('',#1332);
#466=VERTEX_POINT('',#1339);
#467=VERTEX_POINT('',#1343);
#468=VERTEX_POINT('',#1347);
#469=VERTEX_POINT('',#1349);
#470=VERTEX_POINT('',#1362);
#471=VERTEX_POINT('',#1363);
#472=VERTEX_POINT('',#1367);
#473=VERTEX_POINT('',#1375);
#474=VERTEX_POINT('',#1376);
#475=VERTEX_POINT('',#1378);
#476=VERTEX_POINT('',#1380);
#477=VERTEX_POINT('',#1390);
#478=VERTEX_POINT('',#1391);
#479=VERTEX_POINT('',#1393);
#480=VERTEX_POINT('',#1395);
#481=VERTEX_POINT('',#1399);
#482=VERTEX_POINT('',#1401);
#483=VERTEX_POINT('',#1403);
#484=VERTEX_POINT('',#1407);
#485=VERTEX_POINT('',#1408);
#486=VERTEX_POINT('',#1410);
#487=VERTEX_POINT('',#1415);
#488=VERTEX_POINT('',#1417);
#489=VERTEX_POINT('',#1419);
#490=VERTEX_POINT('',#1421);
#491=VERTEX_POINT('',#1426);
#492=VERTEX_POINT('',#1428);
#493=VERTEX_POINT('',#1430);
#494=VERTEX_POINT('',#1432);
#495=VERTEX_POINT('',#1434);
#496=VERTEX_POINT('',#1437);
#497=VERTEX_POINT('',#1439);
#498=VERTEX_POINT('',#1465);
#499=VERTEX_POINT('',#1469);
#500=VERTEX_POINT('',#1476);
#501=VERTEX_POINT('',#1478);
#502=VERTEX_POINT('',#1482);
#503=VERTEX_POINT('',#1488);
#504=VERTEX_POINT('',#1492);
#505=LINE('',#1242,#612);
#506=LINE('',#1245,#613);
#507=LINE('',#1247,#614);
#508=LINE('',#1249,#615);
#509=LINE('',#1251,#616);
#510=LINE('',#1253,#617);
#511=LINE('',#1255,#618);
#512=LINE('',#1257,#619);
#513=LINE('',#1259,#620);
#514=LINE('',#1261,#621);
#515=LINE('',#1263,#622);
#516=LINE('',#1265,#623);
#517=LINE('',#1266,#624);
#518=LINE('',#1269,#625);
#519=LINE('',#1271,#626);
#520=LINE('',#1273,#627);
#521=LINE('',#1275,#628);
#522=LINE('',#1278,#629);
#523=LINE('',#1280,#630);
#524=LINE('',#1282,#631);
#525=LINE('',#1283,#632);
#526=LINE('',#1286,#633);
#527=LINE('',#1288,#634);
#528=LINE('',#1290,#635);
#529=LINE('',#1292,#636);
#530=LINE('',#1295,#637);
#531=LINE('',#1297,#638);
#532=LINE('',#1299,#639);
#533=LINE('',#1301,#640);
#534=LINE('',#1306,#641);
#535=LINE('',#1311,#642);
#536=LINE('',#1315,#643);
#537=LINE('',#1316,#644);
#538=LINE('',#1321,#645);
#539=LINE('',#1325,#646);
#540=LINE('',#1329,#647);
#541=LINE('',#1333,#648);
#542=LINE('',#1338,#649);
#543=LINE('',#1346,#650);
#544=LINE('',#1350,#651);
#545=LINE('',#1355,#652);
#546=LINE('',#1359,#653);
#547=LINE('',#1364,#654);
#548=LINE('',#1365,#655);
#549=LINE('',#1368,#656);
#550=LINE('',#1370,#657);
#551=LINE('',#1374,#658);
#552=LINE('',#1377,#659);
#553=LINE('',#1379,#660);
#554=LINE('',#1381,#661);
#555=LINE('',#1383,#662);
#556=LINE('',#1384,#663);
#557=LINE('',#1386,#664);
#558=LINE('',#1387,#665);
#559=LINE('',#1389,#666);
#560=LINE('',#1392,#667);
#561=LINE('',#1394,#668);
#562=LINE('',#1396,#669);
#563=LINE('',#1398,#670);
#564=LINE('',#1400,#671);
#565=LINE('',#1402,#672);
#566=LINE('',#1404,#673);
#567=LINE('',#1406,#674);
#568=LINE('',#1409,#675);
#569=LINE('',#1411,#676);
#570=LINE('',#1412,#677);
#571=LINE('',#1414,#678);
#572=LINE('',#1416,#679);
#573=LINE('',#1418,#680);
#574=LINE('',#1420,#681);
#575=LINE('',#1422,#682);
#576=LINE('',#1423,#683);
#577=LINE('',#1425,#684);
#578=LINE('',#1427,#685);
#579=LINE('',#1429,#686);
#580=LINE('',#1431,#687);
#581=LINE('',#1433,#688);
#582=LINE('',#1435,#689);
#583=LINE('',#1436,#690);
#584=LINE('',#1438,#691);
#585=LINE('',#1440,#692);
#586=LINE('',#1443,#693);
#587=LINE('',#1444,#694);
#588=LINE('',#1446,#695);
#589=LINE('',#1447,#696);
#590=LINE('',#1450,#697);
#591=LINE('',#1452,#698);
#592=LINE('',#1456,#699);
#593=LINE('',#1457,#700);
#594=LINE('',#1459,#701);
#595=LINE('',#1461,#702);
#596=LINE('',#1464,#703);
#597=LINE('',#1466,#704);
#598=LINE('',#1468,#705);
#599=LINE('',#1470,#706);
#600=LINE('',#1472,#707);
#601=LINE('',#1475,#708);
#602=LINE('',#1477,#709);
#603=LINE('',#1479,#710);
#604=LINE('',#1481,#711);
#605=LINE('',#1483,#712);
#606=LINE('',#1485,#713);
#607=LINE('',#1487,#714);
#608=LINE('',#1489,#715);
#609=LINE('',#1491,#716);
#610=LINE('',#1493,#717);
#611=LINE('',#1495,#718);
#612=VECTOR('',#997,1.);
#613=VECTOR('',#998,1.);
#614=VECTOR('',#999,1.);
#615=VECTOR('',#1000,1.);
#616=VECTOR('',#1001,1.);
#617=VECTOR('',#1002,1.);
#618=VECTOR('',#1003,1.);
#619=VECTOR('',#1004,1.);
#620=VECTOR('',#1005,1.);
#621=VECTOR('',#1006,1.);
#622=VECTOR('',#1007,1.);
#623=VECTOR('',#1008,1.);
#624=VECTOR('',#1009,1.);
#625=VECTOR('',#1010,1.);
#626=VECTOR('',#1011,1.);
#627=VECTOR('',#1012,1.);
#628=VECTOR('',#1015,1.);
#629=VECTOR('',#1016,1.);
#630=VECTOR('',#1017,1.);
#631=VECTOR('',#1018,1.);
#632=VECTOR('',#1019,1.);
#633=VECTOR('',#1020,1.);
#634=VECTOR('',#1021,1.);
#635=VECTOR('',#1022,1.);
#636=VECTOR('',#1025,1.);
#637=VECTOR('',#1026,1.);
#638=VECTOR('',#1027,1.);
#639=VECTOR('',#1028,1.);
#640=VECTOR('',#1031,1.);
#641=VECTOR('',#1034,1.);
#642=VECTOR('',#1039,1.);
#643=VECTOR('',#1044,1.);
#644=VECTOR('',#1045,1.);
#645=VECTOR('',#1050,1.);
#646=VECTOR('',#1053,1.);
#647=VECTOR('',#1058,1.);
#648=VECTOR('',#1061,1.);
#649=VECTOR('',#1070,1.);
#650=VECTOR('',#1081,1.);
#651=VECTOR('',#1084,1.);
#652=VECTOR('',#1093,1.);
#653=VECTOR('',#1100,1.);
#654=VECTOR('',#1105,1.);
#655=VECTOR('',#1106,1.);
#656=VECTOR('',#1109,1.);
#657=VECTOR('',#1112,1.);
#658=VECTOR('',#1119,1.);
#659=VECTOR('',#1120,1.);
#660=VECTOR('',#1121,1.);
#661=VECTOR('',#1122,1.);
#662=VECTOR('',#1125,1.);
#663=VECTOR('',#1126,1.);
#664=VECTOR('',#1129,1.);
#665=VECTOR('',#1130,1.);
#666=VECTOR('',#1133,1.);
#667=VECTOR('',#1134,1.);
#668=VECTOR('',#1135,1.);
#669=VECTOR('',#1136,1.);
#670=VECTOR('',#1139,1.);
#671=VECTOR('',#1140,1.);
#672=VECTOR('',#1141,1.);
#673=VECTOR('',#1142,1.);
#674=VECTOR('',#1145,1.);
#675=VECTOR('',#1146,1.);
#676=VECTOR('',#1147,1.);
#677=VECTOR('',#1148,1.);
#678=VECTOR('',#1151,1.);
#679=VECTOR('',#1152,1.);
#680=VECTOR('',#1153,1.);
#681=VECTOR('',#1154,1.);
#682=VECTOR('',#1155,1.);
#683=VECTOR('',#1156,1.);
#684=VECTOR('',#1159,1.);
#685=VECTOR('',#1160,1.);
#686=VECTOR('',#1161,1.);
#687=VECTOR('',#1162,1.);
#688=VECTOR('',#1163,1.);
#689=VECTOR('',#1164,1.);
#690=VECTOR('',#1165,1.);
#691=VECTOR('',#1166,1.);
#692=VECTOR('',#1167,1.);
#693=VECTOR('',#1172,1.);
#694=VECTOR('',#1173,1.);
#695=VECTOR('',#1176,1.);
#696=VECTOR('',#1177,1.);
#697=VECTOR('',#1182,1.);
#698=VECTOR('',#1185,1.);
#699=VECTOR('',#1192,1.);
#700=VECTOR('',#1193,1.);
#701=VECTOR('',#1196,1.);
#702=VECTOR('',#1199,1.);
#703=VECTOR('',#1204,1.);
#704=VECTOR('',#1205,1.);
#705=VECTOR('',#1208,1.);
#706=VECTOR('',#1209,1.);
#707=VECTOR('',#1212,1.);
#708=VECTOR('',#1217,1.);
#709=VECTOR('',#1218,1.);
#710=VECTOR('',#1219,1.);
#711=VECTOR('',#1222,1.);
#712=VECTOR('',#1223,1.);
#713=VECTOR('',#1226,1.);
#714=VECTOR('',#1229,1.);
#715=VECTOR('',#1230,1.);
#716=VECTOR('',#1233,1.);
#717=VECTOR('',#1234,1.);
#718=VECTOR('',#1237,1.);
#719=EDGE_LOOP('',(#44,#45,#46,#47,#48,#49,#50,#51,#52,#53,#54,#55));
#720=EDGE_LOOP('',(#56,#57,#58,#59));
#721=EDGE_LOOP('',(#60,#61,#62,#63));
#722=EDGE_LOOP('',(#64,#65,#66,#67));
#723=EDGE_LOOP('',(#68,#69,#70,#71));
#724=EDGE_LOOP('',(#72,#73,#74,#75,#76,#77,#78,#79));
#725=EDGE_LOOP('',(#80,#81,#82,#83,#84,#85,#86,#87,#88,#89));
#726=EDGE_LOOP('',(#90,#91,#92,#93));
#727=EDGE_LOOP('',(#94,#95,#96));
#728=EDGE_LOOP('',(#97,#98,#99,#100));
#729=EDGE_LOOP('',(#101,#102,#103));
#730=EDGE_LOOP('',(#104,#105,#106,#107));
#731=EDGE_LOOP('',(#108,#109,#110));
#732=EDGE_LOOP('',(#111,#112,#113,#114));
#733=EDGE_LOOP('',(#115,#116,#117));
#734=EDGE_LOOP('',(#118,#119,#120,#121));
#735=EDGE_LOOP('',(#122,#123,#124,#125,#126,#127,#128,#129));
#736=EDGE_LOOP('',(#130,#131,#132,#133));
#737=EDGE_LOOP('',(#134,#135,#136,#137));
#738=EDGE_LOOP('',(#138,#139,#140,#141));
#739=EDGE_LOOP('',(#142,#143,#144,#145));
#740=EDGE_LOOP('',(#146,#147,#148,#149));
#741=EDGE_LOOP('',(#150,#151,#152,#153));
#742=EDGE_LOOP('',(#154,#155,#156,#157));
#743=EDGE_LOOP('',(#158,#159,#160,#161,#162));
#744=EDGE_LOOP('',(#163,#164,#165,#166,#167));
#745=EDGE_LOOP('',(#168,#169,#170,#171,#172,#173,#174,#175));
#746=EDGE_LOOP('',(#176,#177,#178,#179,#180,#181,#182,#183,#184,#185,#186,
#187));
#747=EDGE_LOOP('',(#188,#189,#190,#191));
#748=EDGE_LOOP('',(#192,#193,#194,#195));
#749=EDGE_LOOP('',(#196,#197,#198,#199));
#750=EDGE_LOOP('',(#200,#201,#202,#203,#204,#205,#206,#207,#208,#209));
#751=EDGE_LOOP('',(#210,#211,#212,#213));
#752=EDGE_LOOP('',(#214,#215,#216,#217));
#753=EDGE_LOOP('',(#218,#219,#220,#221));
#754=EDGE_LOOP('',(#222,#223,#224,#225));
#755=EDGE_LOOP('',(#226,#227,#228,#229));
#756=EDGE_LOOP('',(#230,#231,#232,#233));
#757=EDGE_LOOP('',(#234,#235,#236,#237));
#758=EDGE_LOOP('',(#238,#239,#240,#241));
#759=EDGE_LOOP('',(#242,#243,#244,#245));
#760=EDGE_LOOP('',(#246,#247,#248,#249));
#761=EDGE_LOOP('',(#250,#251,#252,#253));
#762=EDGE_LOOP('',(#254,#255,#256,#257));
#763=EDGE_LOOP('',(#258,#259,#260,#261));
#764=EDGE_LOOP('',(#262,#263,#264,#265));
#765=EDGE_LOOP('',(#266,#267,#268,#269));
#766=EDGE_LOOP('',(#270,#271,#272,#273));
#767=EDGE_LOOP('',(#274,#275,#276,#277));
#768=EDGE_LOOP('',(#278,#279,#280,#281));
#769=EDGE_LOOP('',(#282,#283,#284,#285));
#770=EDGE_LOOP('',(#286,#287,#288,#289));
#771=EDGE_LOOP('',(#290,#291,#292,#293,#294,#295,#296,#297));
#772=FACE_BOUND('',#719,.T.);
#773=FACE_BOUND('',#720,.T.);
#774=FACE_BOUND('',#721,.T.);
#775=FACE_BOUND('',#722,.T.);
#776=FACE_BOUND('',#723,.T.);
#777=FACE_BOUND('',#724,.T.);
#778=FACE_BOUND('',#725,.T.);
#779=FACE_BOUND('',#726,.T.);
#780=FACE_BOUND('',#727,.T.);
#781=FACE_BOUND('',#728,.T.);
#782=FACE_BOUND('',#729,.T.);
#783=FACE_BOUND('',#730,.T.);
#784=FACE_BOUND('',#731,.T.);
#785=FACE_BOUND('',#732,.T.);
#786=FACE_BOUND('',#733,.T.);
#787=FACE_BOUND('',#734,.T.);
#788=FACE_BOUND('',#735,.T.);
#789=FACE_BOUND('',#736,.T.);
#790=FACE_BOUND('',#737,.T.);
#791=FACE_BOUND('',#738,.T.);
#792=FACE_BOUND('',#739,.T.);
#793=FACE_BOUND('',#740,.T.);
#794=FACE_BOUND('',#741,.T.);
#795=FACE_BOUND('',#742,.T.);
#796=FACE_BOUND('',#743,.T.);
#797=FACE_BOUND('',#744,.T.);
#798=FACE_BOUND('',#745,.T.);
#799=FACE_BOUND('',#746,.T.);
#800=FACE_BOUND('',#747,.T.);
#801=FACE_BOUND('',#748,.T.);
#802=FACE_BOUND('',#749,.T.);
#803=FACE_BOUND('',#750,.T.);
#804=FACE_BOUND('',#751,.T.);
#805=FACE_BOUND('',#752,.T.);
#806=FACE_BOUND('',#753,.T.);
#807=FACE_BOUND('',#754,.T.);
#808=FACE_BOUND('',#755,.T.);
#809=FACE_BOUND('',#756,.T.);
#810=FACE_BOUND('',#757,.T.);
#811=FACE_BOUND('',#758,.T.);
#812=FACE_BOUND('',#759,.T.);
#813=FACE_BOUND('',#760,.T.);
#814=FACE_BOUND('',#761,.T.);
#815=FACE_BOUND('',#762,.T.);
#816=FACE_BOUND('',#763,.T.);
#817=FACE_BOUND('',#764,.T.);
#818=FACE_BOUND('',#765,.T.);
#819=FACE_BOUND('',#766,.T.);
#820=FACE_BOUND('',#767,.T.);
#821=FACE_BOUND('',#768,.T.);
#822=FACE_BOUND('',#769,.T.);
#823=FACE_BOUND('',#770,.T.);
#824=FACE_BOUND('',#771,.T.);
#825=PLANE('',#924);
#826=PLANE('',#925);
#827=PLANE('',#926);
#828=PLANE('',#932);
#829=PLANE('',#960);
#830=PLANE('',#961);
#831=PLANE('',#962);
#832=PLANE('',#963);
#833=PLANE('',#964);
#834=PLANE('',#965);
#835=PLANE('',#966);
#836=PLANE('',#967);
#837=PLANE('',#968);
#838=PLANE('',#969);
#839=PLANE('',#970);
#840=PLANE('',#971);
#841=PLANE('',#972);
#842=PLANE('',#973);
#843=PLANE('',#974);
#844=PLANE('',#975);
#845=PLANE('',#976);
#846=PLANE('',#977);
#847=PLANE('',#978);
#848=PLANE('',#979);
#849=PLANE('',#980);
#850=PLANE('',#981);
#851=PLANE('',#982);
#852=PLANE('',#983);
#853=PLANE('',#984);
#854=PLANE('',#985);
#855=PLANE('',#986);
#856=PLANE('',#987);
#857=PLANE('',#988);
#858=PLANE('',#989);
#859=PLANE('',#990);
#860=PLANE('',#991);
#861=PLANE('',#992);
#862=ADVANCED_FACE('',(#772,#773),#825,.F.);
#863=ADVANCED_FACE('',(#774,#775),#826,.T.);
#864=ADVANCED_FACE('',(#776),#827,.F.);
#865=ADVANCED_FACE('',(#777),#36,.T.);
#866=ADVANCED_FACE('',(#778),#828,.T.);
#867=ADVANCED_FACE('',(#779),#37,.T.);
#868=ADVANCED_FACE('',(#780),#12,.T.);
#869=ADVANCED_FACE('',(#781),#38,.T.);
#870=ADVANCED_FACE('',(#782),#13,.T.);
#871=ADVANCED_FACE('',(#783),#39,.T.);
#872=ADVANCED_FACE('',(#784),#14,.T.);
#873=ADVANCED_FACE('',(#785),#40,.T.);
#874=ADVANCED_FACE('',(#786),#15,.T.);
#875=ADVANCED_FACE('',(#787),#41,.T.);
#876=ADVANCED_FACE('',(#788),#42,.T.);
#877=ADVANCED_FACE('',(#789),#43,.T.);
#878=ADVANCED_FACE('',(#790),#829,.T.);
#879=ADVANCED_FACE('',(#791),#830,.F.);
#880=ADVANCED_FACE('',(#792),#831,.T.);
#881=ADVANCED_FACE('',(#793),#832,.F.);
#882=ADVANCED_FACE('',(#794),#833,.T.);
#883=ADVANCED_FACE('',(#795),#834,.T.);
#884=ADVANCED_FACE('',(#796),#835,.F.);
#885=ADVANCED_FACE('',(#797),#836,.T.);
#886=ADVANCED_FACE('',(#798),#837,.F.);
#887=ADVANCED_FACE('',(#799,#800),#838,.T.);
#888=ADVANCED_FACE('',(#801,#802),#839,.F.);
#889=ADVANCED_FACE('',(#803),#840,.F.);
#890=ADVANCED_FACE('',(#804),#841,.T.);
#891=ADVANCED_FACE('',(#805),#842,.F.);
#892=ADVANCED_FACE('',(#806),#843,.F.);
#893=ADVANCED_FACE('',(#807),#844,.F.);
#894=ADVANCED_FACE('',(#808),#845,.F.);
#895=ADVANCED_FACE('',(#809),#846,.T.);
#896=ADVANCED_FACE('',(#810),#847,.T.);
#897=ADVANCED_FACE('',(#811),#848,.F.);
#898=ADVANCED_FACE('',(#812),#849,.F.);
#899=ADVANCED_FACE('',(#813),#850,.T.);
#900=ADVANCED_FACE('',(#814),#851,.T.);
#901=ADVANCED_FACE('',(#815),#852,.F.);
#902=ADVANCED_FACE('',(#816),#853,.T.);
#903=ADVANCED_FACE('',(#817),#854,.T.);
#904=ADVANCED_FACE('',(#818),#855,.T.);
#905=ADVANCED_FACE('',(#819),#856,.T.);
#906=ADVANCED_FACE('',(#820),#857,.T.);
#907=ADVANCED_FACE('',(#821),#858,.F.);
#908=ADVANCED_FACE('',(#822),#859,.F.);
#909=ADVANCED_FACE('',(#823),#860,.T.);
#910=ADVANCED_FACE('',(#824),#861,.T.);
#911=CLOSED_SHELL('',(#862,#863,#864,#865,#866,#867,#868,#869,#870,#871,
#872,#873,#874,#875,#876,#877,#878,#879,#880,#881,#882,#883,#884,#885,#886,
#887,#888,#889,#890,#891,#892,#893,#894,#895,#896,#897,#898,#899,#900,#901,
#902,#903,#904,#905,#906,#907,#908,#909,#910));
#912=STYLED_ITEM('',(#913),#920);
#913=PRESENTATION_STYLE_ASSIGNMENT((#914));
#914=SURFACE_STYLE_USAGE(.BOTH.,#915);
#915=SURFACE_SIDE_STYLE('',(#916));
#916=SURFACE_STYLE_FILL_AREA(#917);
#917=FILL_AREA_STYLE('',(#918));
#918=FILL_AREA_STYLE_COLOUR('',#919);
#919=COLOUR_RGB('',0.615686274509804,0.811764705882353,0.929411764705882);
#920=MANIFOLD_SOLID_BREP('body',#911);
#921=SHAPE_DEFINITION_REPRESENTATION(#1503,#922);
#922=SHAPE_REPRESENTATION('body',(#923),#1498);
#923=AXIS2_PLACEMENT_3D('',#1240,#993,#994);
#924=AXIS2_PLACEMENT_3D('',#1241,#995,#996);
#925=AXIS2_PLACEMENT_3D('',#1274,#1013,#1014);
#926=AXIS2_PLACEMENT_3D('',#1291,#1023,#1024);
#927=AXIS2_PLACEMENT_3D('',#1300,#1029,#1030);
#928=AXIS2_PLACEMENT_3D('',#1304,#1032,#1033);
#929=AXIS2_PLACEMENT_3D('',#1308,#1035,#1036);
#930=AXIS2_PLACEMENT_3D('',#1309,#1037,#1038);
#931=AXIS2_PLACEMENT_3D('',#1313,#1040,#1041);
#932=AXIS2_PLACEMENT_3D('',#1314,#1042,#1043);
#933=AXIS2_PLACEMENT_3D('',#1318,#1046,#1047);
#934=AXIS2_PLACEMENT_3D('',#1319,#1048,#1049);
#935=AXIS2_PLACEMENT_3D('',#1323,#1051,#1052);
#936=AXIS2_PLACEMENT_3D('',#1326,#1054,#1055);
#937=AXIS2_PLACEMENT_3D('',#1327,#1056,#1057);
#938=AXIS2_PLACEMENT_3D('',#1331,#1059,#1060);
#939=AXIS2_PLACEMENT_3D('',#1334,#1062,#1063);
#940=AXIS2_PLACEMENT_3D('',#1335,#1064,#1065);
#941=AXIS2_PLACEMENT_3D('',#1336,#1066,#1067);
#942=AXIS2_PLACEMENT_3D('',#1337,#1068,#1069);
#943=AXIS2_PLACEMENT_3D('',#1340,#1071,#1072);
#944=AXIS2_PLACEMENT_3D('',#1341,#1073,#1074);
#945=AXIS2_PLACEMENT_3D('',#1342,#1075,#1076);
#946=AXIS2_PLACEMENT_3D('',#1344,#1077,#1078);
#947=AXIS2_PLACEMENT_3D('',#1345,#1079,#1080);
#948=AXIS2_PLACEMENT_3D('',#1348,#1082,#1083);
#949=AXIS2_PLACEMENT_3D('',#1351,#1085,#1086);
#950=AXIS2_PLACEMENT_3D('',#1352,#1087,#1088);
#951=AXIS2_PLACEMENT_3D('',#1353,#1089,#1090);
#952=AXIS2_PLACEMENT_3D('',#1354,#1091,#1092);
#953=AXIS2_PLACEMENT_3D('',#1356,#1094,#1095);
#954=AXIS2_PLACEMENT_3D('',#1357,#1096,#1097);
#955=AXIS2_PLACEMENT_3D('',#1358,#1098,#1099);
#956=AXIS2_PLACEMENT_3D('',#1360,#1101,#1102);
#957=AXIS2_PLACEMENT_3D('',#1361,#1103,#1104);
#958=AXIS2_PLACEMENT_3D('',#1366,#1107,#1108);
#959=AXIS2_PLACEMENT_3D('',#1369,#1110,#1111);
#960=AXIS2_PLACEMENT_3D('',#1371,#1113,#1114);
#961=AXIS2_PLACEMENT_3D('',#1372,#1115,#1116);
#962=AXIS2_PLACEMENT_3D('',#1373,#1117,#1118);
#963=AXIS2_PLACEMENT_3D('',#1382,#1123,#1124);
#964=AXIS2_PLACEMENT_3D('',#1385,#1127,#1128);
#965=AXIS2_PLACEMENT_3D('',#1388,#1131,#1132);
#966=AXIS2_PLACEMENT_3D('',#1397,#1137,#1138);
#967=AXIS2_PLACEMENT_3D('',#1405,#1143,#1144);
#968=AXIS2_PLACEMENT_3D('',#1413,#1149,#1150);
#969=AXIS2_PLACEMENT_3D('',#1424,#1157,#1158);
#970=AXIS2_PLACEMENT_3D('',#1441,#1168,#1169);
#971=AXIS2_PLACEMENT_3D('',#1442,#1170,#1171);
#972=AXIS2_PLACEMENT_3D('',#1445,#1174,#1175);
#973=AXIS2_PLACEMENT_3D('',#1448,#1178,#1179);
#974=AXIS2_PLACEMENT_3D('',#1449,#1180,#1181);
#975=AXIS2_PLACEMENT_3D('',#1451,#1183,#1184);
#976=AXIS2_PLACEMENT_3D('',#1453,#1186,#1187);
#977=AXIS2_PLACEMENT_3D('',#1454,#1188,#1189);
#978=AXIS2_PLACEMENT_3D('',#1455,#1190,#1191);
#979=AXIS2_PLACEMENT_3D('',#1458,#1194,#1195);
#980=AXIS2_PLACEMENT_3D('',#1460,#1197,#1198);
#981=AXIS2_PLACEMENT_3D('',#1462,#1200,#1201);
#982=AXIS2_PLACEMENT_3D('',#1463,#1202,#1203);
#983=AXIS2_PLACEMENT_3D('',#1467,#1206,#1207);
#984=AXIS2_PLACEMENT_3D('',#1471,#1210,#1211);
#985=AXIS2_PLACEMENT_3D('',#1473,#1213,#1214);
#986=AXIS2_PLACEMENT_3D('',#1474,#1215,#1216);
#987=AXIS2_PLACEMENT_3D('',#1480,#1220,#1221);
#988=AXIS2_PLACEMENT_3D('',#1484,#1224,#1225);
#989=AXIS2_PLACEMENT_3D('',#1486,#1227,#1228);
#990=AXIS2_PLACEMENT_3D('',#1490,#1231,#1232);
#991=AXIS2_PLACEMENT_3D('',#1494,#1235,#1236);
#992=AXIS2_PLACEMENT_3D('',#1496,#1238,#1239);
#993=DIRECTION('',(0.,0.,1.));
#994=DIRECTION('',(1.,0.,0.));
#995=DIRECTION('',(-1.,-3.01691039300315E-16,0.));
#996=DIRECTION('',(3.01691039300315E-16,-1.,0.));
#997=DIRECTION('',(-3.01691039300315E-16,1.,0.));
#998=DIRECTION('',(0.,0.,1.));
#999=DIRECTION('',(2.77555756156289E-16,-1.,0.));
#1000=DIRECTION('',(0.,0.,-1.));
#1001=DIRECTION('',(-2.77555756156289E-16,1.,0.));
#1002=DIRECTION('',(0.,0.,-1.));
#1003=DIRECTION('',(-3.01691039300315E-16,1.,0.));
#1004=DIRECTION('',(0.,0.,-1.));
#1005=DIRECTION('',(-2.77555756156289E-16,1.,0.));
#1006=DIRECTION('',(0.,0.,-1.));
#1007=DIRECTION('',(-2.77555756156289E-16,1.,0.));
#1008=DIRECTION('',(0.,0.,-1.));
#1009=DIRECTION('',(-3.17952933393741E-32,1.05390247629211E-16,1.));
#1010=DIRECTION('',(3.01691039300315E-16,-1.,0.));
#1011=DIRECTION('',(-3.17952933393741E-32,1.05390247629211E-16,1.));
#1012=DIRECTION('',(3.01691039300315E-16,-1.,0.));
#1013=DIRECTION('',(-1.,-2.77555756156289E-16,0.));
#1014=DIRECTION('',(2.77555756156289E-16,-1.,0.));
#1015=DIRECTION('',(0.,0.,1.));
#1016=DIRECTION('',(-2.77555756156289E-16,1.,0.));
#1017=DIRECTION('',(0.,0.,-1.));
#1018=DIRECTION('',(-2.77555756156289E-16,1.,0.));
#1019=DIRECTION('',(2.77555756156289E-16,-1.,0.));
#1020=DIRECTION('',(-2.92516698722241E-32,1.05390247629211E-16,1.));
#1021=DIRECTION('',(2.77555756156289E-16,-1.,0.));
#1022=DIRECTION('',(-2.92516698722241E-32,1.05390247629211E-16,1.));
#1023=DIRECTION('',(-1.,-2.77555756156289E-16,0.));
#1024=DIRECTION('',(2.77555756156289E-16,-1.,0.));
#1025=DIRECTION('',(-2.77555756156289E-16,1.,0.));
#1026=DIRECTION('',(0.,0.,1.));
#1027=DIRECTION('',(2.77555756156289E-16,-1.,0.));
#1028=DIRECTION('',(0.,0.,-1.));
#1029=DIRECTION('',(0.,0.,-1.));
#1030=DIRECTION('',(-1.,0.,0.));
#1031=DIRECTION('',(0.,0.,-1.));
#1032=DIRECTION('',(0.,0.,-1.));
#1033=DIRECTION('',(-1.,0.,0.));
#1034=DIRECTION('',(0.,0.,-1.));
#1035=DIRECTION('',(0.,0.,-1.));
#1036=DIRECTION('',(-1.,0.,0.));
#1037=DIRECTION('',(0.,0.,-1.));
#1038=DIRECTION('',(-1.,0.,0.));
#1039=DIRECTION('',(0.,0.,-1.));
#1040=DIRECTION('',(0.,0.,1.));
#1041=DIRECTION('',(1.,0.,0.));
#1042=DIRECTION('',(0.,0.,1.));
#1043=DIRECTION('',(1.,0.,0.));
#1044=DIRECTION('',(1.,2.77555756156289E-16,0.));
#1045=DIRECTION('',(-1.,-8.67361737988404E-17,0.));
#1046=DIRECTION('',(0.,0.,1.));
#1047=DIRECTION('',(1.,0.,0.));
#1048=DIRECTION('',(0.,0.,1.));
#1049=DIRECTION('',(1.,0.,0.));
#1050=DIRECTION('',(-1.,-8.67361737988404E-17,0.));
#1051=DIRECTION('',(0.,0.,1.));
#1052=DIRECTION('',(1.,0.,0.));
#1053=DIRECTION('',(1.,2.77555756156289E-16,0.));
#1054=DIRECTION('',(1.,8.67361737988404E-17,0.));
#1055=DIRECTION('',(-8.67361737988404E-17,1.,0.));
#1056=DIRECTION('',(1.,0.,0.));
#1057=DIRECTION('',(0.,0.,-1.));
#1058=DIRECTION('',(1.,8.67361737988404E-17,0.));
#1059=DIRECTION('',(1.,0.,0.));
#1060=DIRECTION('',(0.,0.,-1.));
#1061=DIRECTION('',(1.,8.67361737988404E-17,0.));
#1062=DIRECTION('',(0.,0.,1.));
#1063=DIRECTION('',(1.,0.,0.));
#1064=DIRECTION('',(0.,1.,0.));
#1065=DIRECTION('',(0.,0.,1.));
#1066=DIRECTION('',(0.,0.,-1.));
#1067=DIRECTION('',(-1.,0.,0.));
#1068=DIRECTION('',(2.77555756156289E-16,-1.,0.));
#1069=DIRECTION('',(1.,2.77555756156289E-16,0.));
#1070=DIRECTION('',(-2.77555756156289E-16,1.,0.));
#1071=DIRECTION('',(0.,1.,0.));
#1072=DIRECTION('',(0.,0.,1.));
#1073=DIRECTION('',(0.,0.,1.));
#1074=DIRECTION('',(1.,0.,0.));
#1075=DIRECTION('',(-1.,0.,0.));
#1076=DIRECTION('',(0.,0.,1.));
#1077=DIRECTION('',(0.,0.,-1.));
#1078=DIRECTION('',(-1.,0.,0.));
#1079=DIRECTION('',(1.,8.67361737988404E-17,0.));
#1080=DIRECTION('',(-8.67361737988404E-17,1.,0.));
#1081=DIRECTION('',(-1.,-8.67361737988404E-17,0.));
#1082=DIRECTION('',(-1.,0.,0.));
#1083=DIRECTION('',(0.,0.,1.));
#1084=DIRECTION('',(-1.,-8.67361737988404E-17,0.));
#1085=DIRECTION('',(0.,0.,1.));
#1086=DIRECTION('',(1.,0.,0.));
#1087=DIRECTION('',(0.,-1.,0.));
#1088=DIRECTION('',(0.,0.,-1.));
#1089=DIRECTION('',(0.,0.,-1.));
#1090=DIRECTION('',(-1.,0.,0.));
#1091=DIRECTION('',(2.77555756156289E-16,-1.,0.));
#1092=DIRECTION('',(1.,2.77555756156289E-16,0.));
#1093=DIRECTION('',(2.77555756156289E-16,-1.,0.));
#1094=DIRECTION('',(0.,-1.,0.));
#1095=DIRECTION('',(0.,0.,-1.));
#1096=DIRECTION('',(0.,0.,1.));
#1097=DIRECTION('',(1.,0.,0.));
#1098=DIRECTION('',(0.,0.,-1.));
#1099=DIRECTION('',(-1.,0.,0.));
#1100=DIRECTION('',(0.,0.,1.));
#1101=DIRECTION('',(0.,0.,-1.));
#1102=DIRECTION('',(-1.,0.,0.));
#1103=DIRECTION('',(0.,0.,1.));
#1104=DIRECTION('',(1.,0.,0.));
#1105=DIRECTION('',(0.,0.,1.));
#1106=DIRECTION('',(0.,0.,1.));
#1107=DIRECTION('',(0.,0.,-1.));
#1108=DIRECTION('',(-1.,0.,0.));
#1109=DIRECTION('',(0.,0.,-1.));
#1110=DIRECTION('',(0.,0.,-1.));
#1111=DIRECTION('',(-1.,0.,0.));
#1112=DIRECTION('',(0.,0.,-1.));
#1113=DIRECTION('',(8.67361737988404E-17,-1.,0.));
#1114=DIRECTION('',(1.,8.67361737988404E-17,0.));
#1115=DIRECTION('',(8.67361737988404E-17,-1.,0.));
#1116=DIRECTION('',(1.,8.67361737988404E-17,0.));
#1117=DIRECTION('',(-1.,-3.01691039300315E-16,0.));
#1118=DIRECTION('',(3.01691039300315E-16,-1.,0.));
#1119=DIRECTION('',(3.01691039300315E-16,-1.,0.));
#1120=DIRECTION('',(0.,0.,-1.));
#1121=DIRECTION('',(-3.01691039300315E-16,1.,0.));
#1122=DIRECTION('',(0.,0.,-1.));
#1123=DIRECTION('',(9.13012355777267E-17,-1.,0.));
#1124=DIRECTION('',(1.,9.13012355777267E-17,0.));
#1125=DIRECTION('',(1.,9.13012355777267E-17,0.));
#1126=DIRECTION('',(-1.,-9.13012355777267E-17,0.));
#1127=DIRECTION('',(9.13012355777267E-17,-1.,0.));
#1128=DIRECTION('',(1.,9.13012355777267E-17,0.));
#1129=DIRECTION('',(1.,9.13012355777267E-17,0.));
#1130=DIRECTION('',(-1.,-9.13012355777267E-17,0.));
#1131=DIRECTION('',(1.,3.01691039300315E-16,0.));
#1132=DIRECTION('',(-3.01691039300315E-16,1.,0.));
#1133=DIRECTION('',(3.01691039300315E-16,-1.,0.));
#1134=DIRECTION('',(0.,0.,-1.));
#1135=DIRECTION('',(3.01691039300315E-16,-1.,0.));
#1136=DIRECTION('',(0.,0.,-1.));
#1137=DIRECTION('',(0.,1.,0.));
#1138=DIRECTION('',(0.,0.,1.));
#1139=DIRECTION('',(1.,0.,0.));
#1140=DIRECTION('',(0.,0.,-1.));
#1141=DIRECTION('',(1.,0.,0.));
#1142=DIRECTION('',(0.,0.,-1.));
#1143=DIRECTION('',(-1.,0.,0.));
#1144=DIRECTION('',(0.,0.,1.));
#1145=DIRECTION('',(0.,0.,-1.));
#1146=DIRECTION('',(0.,0.,-1.));
#1147=DIRECTION('',(0.,1.,0.));
#1148=DIRECTION('',(0.,1.,0.));
#1149=DIRECTION('',(0.,-1.,0.));
#1150=DIRECTION('',(0.,0.,-1.));
#1151=DIRECTION('',(-1.,0.,0.));
#1152=DIRECTION('',(0.,0.,-1.));
#1153=DIRECTION('',(-1.,-1.16385003533514E-16,0.));
#1154=DIRECTION('',(0.,0.,-1.));
#1155=DIRECTION('',(-1.,0.,0.));
#1156=DIRECTION('',(-1.,0.,0.));
#1157=DIRECTION('',(0.,0.,1.));
#1158=DIRECTION('',(1.,0.,0.));
#1159=DIRECTION('',(0.,-1.,0.));
#1160=DIRECTION('',(-1.,0.,0.));
#1161=DIRECTION('',(0.,-1.,0.));
#1162=DIRECTION('',(-1.,0.,0.));
#1163=DIRECTION('',(0.,-1.,0.));
#1164=DIRECTION('',(-1.,0.,0.));
#1165=DIRECTION('',(0.,1.,0.));
#1166=DIRECTION('',(1.,0.,0.));
#1167=DIRECTION('',(0.,1.,0.));
#1168=DIRECTION('',(0.,0.,1.));
#1169=DIRECTION('',(1.,0.,0.));
#1170=DIRECTION('',(0.,0.,-1.));
#1171=DIRECTION('',(-1.,0.,0.));
#1172=DIRECTION('',(1.,2.77555756156289E-16,0.));
#1173=DIRECTION('',(1.,2.77555756156289E-16,0.));
#1174=DIRECTION('',(0.,0.,-1.));
#1175=DIRECTION('',(-1.,0.,0.));
#1176=DIRECTION('',(1.,2.77555756156289E-16,0.));
#1177=DIRECTION('',(1.,2.77555756156289E-16,0.));
#1178=DIRECTION('',(-2.77555756156289E-16,1.,0.));
#1179=DIRECTION('',(-1.,-2.77555756156289E-16,0.));
#1180=DIRECTION('',(2.77555756156289E-16,-1.,0.));
#1181=DIRECTION('',(1.,2.77555756156289E-16,0.));
#1182=DIRECTION('',(1.,2.77555756156289E-16,0.));
#1183=DIRECTION('',(0.,0.,1.));
#1184=DIRECTION('',(1.,0.,0.));
#1185=DIRECTION('',(1.,2.77555756156289E-16,0.));
#1186=DIRECTION('',(2.77555756156289E-16,-1.,0.));
#1187=DIRECTION('',(1.,2.77555756156289E-16,0.));
#1188=DIRECTION('',(2.77555756156289E-16,-1.,0.));
#1189=DIRECTION('',(1.,2.77555756156289E-16,0.));
#1190=DIRECTION('',(2.77555756156289E-16,-1.,1.05390247629211E-16));
#1191=DIRECTION('',(1.,2.77555756156289E-16,0.));
#1192=DIRECTION('',(-1.,-2.77555756156289E-16,0.));
#1193=DIRECTION('',(-1.,-2.77555756156289E-16,0.));
#1194=DIRECTION('',(0.,0.,-1.));
#1195=DIRECTION('',(-1.,0.,0.));
#1196=DIRECTION('',(-1.,-2.77555756156289E-16,0.));
#1197=DIRECTION('',(2.77555756156289E-16,-1.,1.05390247629211E-16));
#1198=DIRECTION('',(1.,2.77555756156289E-16,0.));
#1199=DIRECTION('',(-1.,-2.77555756156289E-16,0.));
#1200=DIRECTION('',(0.,0.,-1.));
#1201=DIRECTION('',(-1.,0.,0.));
#1202=DIRECTION('',(1.,0.,0.));
#1203=DIRECTION('',(0.,0.,-1.));
#1204=DIRECTION('',(0.,0.,-1.));
#1205=DIRECTION('',(0.,-1.,0.));
#1206=DIRECTION('',(1.,0.,0.));
#1207=DIRECTION('',(0.,0.,-1.));
#1208=DIRECTION('',(0.,0.,-1.));
#1209=DIRECTION('',(0.,-1.,0.));
#1210=DIRECTION('',(0.,-1.,0.));
#1211=DIRECTION('',(0.,0.,-1.));
#1212=DIRECTION('',(-1.,0.,0.));
#1213=DIRECTION('',(0.,0.,1.));
#1214=DIRECTION('',(1.,0.,0.));
#1215=DIRECTION('',(-1.,0.,0.));
#1216=DIRECTION('',(0.,0.,1.));
#1217=DIRECTION('',(0.,0.,-1.));
#1218=DIRECTION('',(0.,0.,-1.));
#1219=DIRECTION('',(0.,1.,0.));
#1220=DIRECTION('',(0.,1.,0.));
#1221=DIRECTION('',(0.,0.,1.));
#1222=DIRECTION('',(0.,0.,-1.));
#1223=DIRECTION('',(1.,0.,0.));
#1224=DIRECTION('',(-1.,0.,0.));
#1225=DIRECTION('',(0.,0.,1.));
#1226=DIRECTION('',(0.,1.,0.));
#1227=DIRECTION('',(0.,1.,0.));
#1228=DIRECTION('',(0.,0.,1.));
#1229=DIRECTION('',(0.,0.,-1.));
#1230=DIRECTION('',(1.,0.,0.));
#1231=DIRECTION('',(-1.,0.,0.));
#1232=DIRECTION('',(0.,0.,1.));
#1233=DIRECTION('',(0.,0.,-1.));
#1234=DIRECTION('',(0.,1.,0.));
#1235=DIRECTION('',(0.,1.,0.));
#1236=DIRECTION('',(0.,0.,1.));
#1237=DIRECTION('',(1.,0.,0.));
#1238=DIRECTION('',(0.,0.,1.));
#1239=DIRECTION('',(1.,0.,0.));
#1240=CARTESIAN_POINT('',(0.,0.,0.));
#1241=CARTESIAN_POINT('',(-0.038,-3.46944695195361E-18,0.03));
#1242=CARTESIAN_POINT('',(-0.038,-3.46944695195361E-18,0.03));
#1243=CARTESIAN_POINT('',(-0.038,-0.0235,0.03));
#1244=CARTESIAN_POINT('',(-0.038,0.0235,0.03));
#1245=CARTESIAN_POINT('',(-0.038,-0.0235,0.03));
#1246=CARTESIAN_POINT('',(-0.038,-0.0235,0.0295));
#1247=CARTESIAN_POINT('',(-0.038,-0.024,0.0295));
#1248=CARTESIAN_POINT('',(-0.038,-0.0245,0.0295));
#1249=CARTESIAN_POINT('',(-0.038,-0.0245,0.02925));
#1250=CARTESIAN_POINT('',(-0.038,-0.0245,0.029));
#1251=CARTESIAN_POINT('',(-0.038,0.024,0.029));
#1252=CARTESIAN_POINT('',(-0.038,-0.023,0.029));
#1253=CARTESIAN_POINT('',(-0.038,-0.023,0.03));
#1254=CARTESIAN_POINT('',(-0.038,-0.023,0.0015));
#1255=CARTESIAN_POINT('',(-0.038,-3.46944695195361E-18,0.0015));
#1256=CARTESIAN_POINT('',(-0.038,0.023,0.0015));
#1257=CARTESIAN_POINT('',(-0.038,0.023,0.03));
#1258=CARTESIAN_POINT('',(-0.038,0.023,0.029));
#1259=CARTESIAN_POINT('',(-0.038,0.024,0.029));
#1260=CARTESIAN_POINT('',(-0.038,0.0245,0.029));
#1261=CARTESIAN_POINT('',(-0.038,0.0245,0.02925));
#1262=CARTESIAN_POINT('',(-0.038,0.0245,0.0295));
#1263=CARTESIAN_POINT('',(-0.038,0.024,0.0295));
#1264=CARTESIAN_POINT('',(-0.038,0.0235,0.0295));
#1265=CARTESIAN_POINT('',(-0.038,0.0235,0.03));
#1266=CARTESIAN_POINT('',(-0.038,0.0112444446658714,0.03));
#1267=CARTESIAN_POINT('',(-0.038,0.0112444446658714,0.00800042942587106));
#1268=CARTESIAN_POINT('',(-0.038,0.0112444446658714,0.024460429425871));
#1269=CARTESIAN_POINT('',(-0.038,-3.46944695195361E-18,0.00800042942587105));
#1270=CARTESIAN_POINT('',(-0.038,-0.0102055553341286,0.00800042942587106));
#1271=CARTESIAN_POINT('',(-0.038,-0.0102055553341286,0.03));
#1272=CARTESIAN_POINT('',(-0.038,-0.0102055553341286,0.024460429425871));
#1273=CARTESIAN_POINT('',(-0.038,-3.46944695195361E-18,0.024460429425871));
#1274=CARTESIAN_POINT('',(-0.04,-6.93889390390723E-18,0.03));
#1275=CARTESIAN_POINT('',(-0.04,0.0235,0.03));
#1276=CARTESIAN_POINT('',(-0.04,0.0235,0.03));
#1277=CARTESIAN_POINT('',(-0.04,0.0235,0.0015));
#1278=CARTESIAN_POINT('',(-0.04,-1.11022302462516E-17,0.0015));
#1279=CARTESIAN_POINT('',(-0.04,-0.0235,0.0015));
#1280=CARTESIAN_POINT('',(-0.04,-0.0235,0.03));
#1281=CARTESIAN_POINT('',(-0.04,-0.0235,0.03));
#1282=CARTESIAN_POINT('',(-0.04,-6.93889390390723E-18,0.03));
#1283=CARTESIAN_POINT('',(-0.04,-6.93889390390723E-18,0.00800042942587105));
#1284=CARTESIAN_POINT('',(-0.04,0.0112444446658714,0.00800042942587106));
#1285=CARTESIAN_POINT('',(-0.04,-0.0102055553341286,0.00800042942587106));
#1286=CARTESIAN_POINT('',(-0.04,0.0112444446658714,0.03));
#1287=CARTESIAN_POINT('',(-0.04,0.0112444446658714,0.024460429425871));
#1288=CARTESIAN_POINT('',(-0.04,-6.93889390390723E-18,0.024460429425871));
#1289=CARTESIAN_POINT('',(-0.04,-0.0102055553341286,0.024460429425871));
#1290=CARTESIAN_POINT('',(-0.04,-0.0102055553341286,0.03));
#1291=CARTESIAN_POINT('',(0.04,3.46944695195361E-18,0.03));
#1292=CARTESIAN_POINT('',(0.04,0.024,0.029));
#1293=CARTESIAN_POINT('',(0.04,-0.0235,0.029));
#1294=CARTESIAN_POINT('',(0.04,0.0235,0.029));
#1295=CARTESIAN_POINT('',(0.04,-0.0235,0.03));
#1296=CARTESIAN_POINT('',(0.04,-0.0235,0.0015));
#1297=CARTESIAN_POINT('',(0.04,3.46944695195361E-18,0.0015));
#1298=CARTESIAN_POINT('',(0.04,0.0235,0.0015));
#1299=CARTESIAN_POINT('',(0.04,0.0235,0.03));
#1300=CARTESIAN_POINT('',(0.0385,0.0235,0.03));
#1301=CARTESIAN_POINT('',(0.04,0.0235,0.03));
#1302=CARTESIAN_POINT('',(0.04,0.0235,0.0295));
#1303=CARTESIAN_POINT('',(0.04,0.0235,0.03));
#1304=CARTESIAN_POINT('',(0.0385,0.0235,0.0295));
#1305=CARTESIAN_POINT('',(0.0396180339887499,0.0245,0.0295));
#1306=CARTESIAN_POINT('',(0.0396180339887499,0.0245,0.03));
#1307=CARTESIAN_POINT('',(0.0396180339887499,0.0245,0.029));
#1308=CARTESIAN_POINT('',(0.0385,0.0235,0.029));
#1309=CARTESIAN_POINT('',(0.0385,0.0235,0.0015));
#1310=CARTESIAN_POINT('',(0.0385,0.025,0.0015));
#1311=CARTESIAN_POINT('',(0.0385,0.025,0.03));
#1312=CARTESIAN_POINT('',(0.0385,0.025,0.03));
#1313=CARTESIAN_POINT('',(0.0385,0.0235,0.03));
#1314=CARTESIAN_POINT('',(0.,0.,0.03));
#1315=CARTESIAN_POINT('',(-0.038,0.0235,0.03));
#1316=CARTESIAN_POINT('',(-6.93889390390723E-18,0.025,0.03));
#1317=CARTESIAN_POINT('',(-0.0385,0.025,0.03));
#1318=CARTESIAN_POINT('',(-0.0385,0.0235,0.03));
#1319=CARTESIAN_POINT('',(-0.0385,-0.0235,0.03));
#1320=CARTESIAN_POINT('',(-0.0385,-0.025,0.03));
#1321=CARTESIAN_POINT('',(6.93889390390723E-18,-0.025,0.03));
#1322=CARTESIAN_POINT('',(0.0385,-0.025,0.03));
#1323=CARTESIAN_POINT('',(0.0385,-0.0235,0.03));
#1324=CARTESIAN_POINT('',(0.04,-0.0235,0.03));
#1325=CARTESIAN_POINT('',(-0.038,-0.0235,0.03));
#1326=CARTESIAN_POINT('',(-2.03830008427275E-18,0.0235,0.0015));
#1327=CARTESIAN_POINT('',(0.0385,0.0235,0.0015));
#1328=CARTESIAN_POINT('',(0.0385,0.0235,0.));
#1329=CARTESIAN_POINT('',(-2.03830008427275E-18,0.0235,0.));
#1330=CARTESIAN_POINT('',(-0.0385,0.0235,0.));
#1331=CARTESIAN_POINT('',(-0.0385,0.0235,0.0015));
#1332=CARTESIAN_POINT('',(-0.0385,0.025,0.0015));
#1333=CARTESIAN_POINT('',(-6.93889390390723E-18,0.025,0.0015));
#1334=CARTESIAN_POINT('',(-0.0385,0.0235,0.0015));
#1335=CARTESIAN_POINT('',(-0.0385,0.0235,0.0015));
#1336=CARTESIAN_POINT('',(-0.0385,0.0235,0.0015));
#1337=CARTESIAN_POINT('',(-0.0385,-1.06858966120171E-17,0.0015));
#1338=CARTESIAN_POINT('',(-0.0385,-1.06858966120171E-17,0.));
#1339=CARTESIAN_POINT('',(-0.0385,-0.0235,0.));
#1340=CARTESIAN_POINT('',(-0.0385,-0.0235,0.0015));
#1341=CARTESIAN_POINT('',(-0.0385,-0.0235,0.0015));
#1342=CARTESIAN_POINT('',(-0.0385,-0.0235,0.0015));
#1343=CARTESIAN_POINT('',(-0.0385,-0.025,0.0015));
#1344=CARTESIAN_POINT('',(-0.0385,-0.0235,0.0015));
#1345=CARTESIAN_POINT('',(2.03830008427275E-18,-0.0235,0.0015));
#1346=CARTESIAN_POINT('',(2.03830008427275E-18,-0.0235,0.));
#1347=CARTESIAN_POINT('',(0.0385,-0.0235,0.));
#1348=CARTESIAN_POINT('',(0.0385,-0.0235,0.0015));
#1349=CARTESIAN_POINT('',(0.0385,-0.025,0.0015));
#1350=CARTESIAN_POINT('',(2.16840434497101E-18,-0.025,0.0015));
#1351=CARTESIAN_POINT('',(0.0385,-0.0235,0.0015));
#1352=CARTESIAN_POINT('',(0.0385,-0.0235,0.0015));
#1353=CARTESIAN_POINT('',(0.0385,-0.0235,0.0015));
#1354=CARTESIAN_POINT('',(0.0385,1.06858966120171E-17,0.0015));
#1355=CARTESIAN_POINT('',(0.0385,1.06858966120171E-17,0.));
#1356=CARTESIAN_POINT('',(0.0385,0.0235,0.0015));
#1357=CARTESIAN_POINT('',(0.0385,0.0235,0.0015));
#1358=CARTESIAN_POINT('',(-0.0385,0.0235,0.03));
#1359=CARTESIAN_POINT('',(-0.0385,0.025,0.03));
#1360=CARTESIAN_POINT('',(0.0385,-0.0235,0.03));
#1361=CARTESIAN_POINT('',(0.0385,-0.0235,0.0295));
#1362=CARTESIAN_POINT('',(0.04,-0.0235,0.0295));
#1363=CARTESIAN_POINT('',(0.0396180339887499,-0.0245,0.0295));
#1364=CARTESIAN_POINT('',(0.04,-0.0235,0.03));
#1365=CARTESIAN_POINT('',(0.0385,-0.025,0.03));
#1366=CARTESIAN_POINT('',(0.0385,-0.0235,0.029));
#1367=CARTESIAN_POINT('',(0.0396180339887499,-0.0245,0.029));
#1368=CARTESIAN_POINT('',(0.0396180339887499,-0.0245,0.03));
#1369=CARTESIAN_POINT('',(-0.0385,-0.0235,0.03));
#1370=CARTESIAN_POINT('',(-0.0385,-0.025,0.03));
#1371=CARTESIAN_POINT('',(6.93889390390723E-18,-0.025,0.03));
#1372=CARTESIAN_POINT('',(-6.93889390390723E-18,0.025,0.03));
#1373=CARTESIAN_POINT('',(0.038,3.46944695195361E-18,0.03));
#1374=CARTESIAN_POINT('',(0.038,3.46944695195361E-18,0.029));
#1375=CARTESIAN_POINT('',(0.038,0.023,0.029));
#1376=CARTESIAN_POINT('',(0.038,-0.023,0.029));
#1377=CARTESIAN_POINT('',(0.038,0.023,0.03));
#1378=CARTESIAN_POINT('',(0.038,0.023,0.0015));
#1379=CARTESIAN_POINT('',(0.038,3.46944695195361E-18,0.0015));
#1380=CARTESIAN_POINT('',(0.038,-0.023,0.0015));
#1381=CARTESIAN_POINT('',(0.038,-0.023,0.03));
#1382=CARTESIAN_POINT('',(6.93889390390723E-18,-0.023,0.03));
#1383=CARTESIAN_POINT('',(6.93889390390723E-18,-0.023,0.029));
#1384=CARTESIAN_POINT('',(6.93889390390723E-18,-0.023,0.0015));
#1385=CARTESIAN_POINT('',(-6.93889390390723E-18,0.023,0.03));
#1386=CARTESIAN_POINT('',(-6.93889390390723E-18,0.023,0.029));
#1387=CARTESIAN_POINT('',(-6.93889390390723E-18,0.023,0.0015));
#1388=CARTESIAN_POINT('',(0.0072495063378638,-0.00748737765679968,0.0015));
#1389=CARTESIAN_POINT('',(0.0072495063378638,-0.00748737765679968,0.0015));
#1390=CARTESIAN_POINT('',(0.0072495063378638,0.00836262234320032,0.0015));
#1391=CARTESIAN_POINT('',(0.0072495063378638,-0.0132373776567997,0.0015));
#1392=CARTESIAN_POINT('',(0.0072495063378638,-0.0132373776567997,0.0015));
#1393=CARTESIAN_POINT('',(0.0072495063378638,-0.0132373776567997,0.));
#1394=CARTESIAN_POINT('',(0.0072495063378638,-0.00748737765679968,0.));
#1395=CARTESIAN_POINT('',(0.0072495063378638,0.00836262234320032,0.));
#1396=CARTESIAN_POINT('',(0.0072495063378638,0.00836262234320032,0.0015));
#1397=CARTESIAN_POINT('',(0.0211495063378638,0.00836262234320032,0.0015));
#1398=CARTESIAN_POINT('',(0.0211495063378638,0.00836262234320032,0.));
#1399=CARTESIAN_POINT('',(0.0350495063378638,0.00836262234320032,0.));
#1400=CARTESIAN_POINT('',(0.0350495063378638,0.00836262234320032,0.0015));
#1401=CARTESIAN_POINT('',(0.0350495063378638,0.00836262234320032,0.005));
#1402=CARTESIAN_POINT('',(0.0211495063378638,0.00836262234320032,0.005));
#1403=CARTESIAN_POINT('',(0.0072495063378638,0.00836262234320032,0.005));
#1404=CARTESIAN_POINT('',(0.0072495063378638,0.00836262234320032,0.005));
#1405=CARTESIAN_POINT('',(0.0350495063378638,0.00331262234320032,0.0015));
#1406=CARTESIAN_POINT('',(0.0350495063378638,-0.0132373776567997,0.0015));
#1407=CARTESIAN_POINT('',(0.0350495063378638,-0.0132373776567997,0.0015));
#1408=CARTESIAN_POINT('',(0.0350495063378638,-0.0132373776567997,0.));
#1409=CARTESIAN_POINT('',(0.0350495063378638,-0.0132373776567997,0.005));
#1410=CARTESIAN_POINT('',(0.0350495063378638,-0.0132373776567997,0.005));
#1411=CARTESIAN_POINT('',(0.0350495063378638,0.00331262234320032,0.005));
#1412=CARTESIAN_POINT('',(0.0350495063378638,0.00331262234320032,0.));
#1413=CARTESIAN_POINT('',(0.0186896352006184,-0.0132373776567997,0.0015));
#1414=CARTESIAN_POINT('',(0.0186896352006184,-0.0132373776567997,0.0015));
#1415=CARTESIAN_POINT('',(0.019060980528593,-0.0132373776567997,0.0015));
#1416=CARTESIAN_POINT('',(0.019060980528593,-0.0132373776567997,0.005));
#1417=CARTESIAN_POINT('',(0.019060980528593,-0.0132373776567997,0.005));
#1418=CARTESIAN_POINT('',(0.0265135020017624,-0.0132373776567997,0.005));
#1419=CARTESIAN_POINT('',(0.0339660234749317,-0.0132373776567997,0.005));
#1420=CARTESIAN_POINT('',(0.0339660234749317,-0.0132373776567997,0.005));
#1421=CARTESIAN_POINT('',(0.0339660234749317,-0.0132373776567997,0.0015));
#1422=CARTESIAN_POINT('',(0.0186896352006184,-0.0132373776567997,0.0015));
#1423=CARTESIAN_POINT('',(0.0186896352006184,-0.0132373776567997,0.));
#1424=CARTESIAN_POINT('',(0.,0.,0.0015));
#1425=CARTESIAN_POINT('',(0.0072495063378638,0.,0.0015));
#1426=CARTESIAN_POINT('',(0.0072495063378638,0.011602196842432,0.0015));
#1427=CARTESIAN_POINT('',(0.,0.011602196842432,0.0015));
#1428=CARTESIAN_POINT('',(0.0350495063378638,0.011602196842432,0.0015));
#1429=CARTESIAN_POINT('',(0.0350495063378638,0.,0.0015));
#1430=CARTESIAN_POINT('',(0.0350495063378638,0.0116026801988482,0.0015));
#1431=CARTESIAN_POINT('',(0.,0.0116026801988482,0.0015));
#1432=CARTESIAN_POINT('',(0.0372583009302616,0.0116026801988482,0.0015));
#1433=CARTESIAN_POINT('',(0.0372583009302616,0.,0.0015));
#1434=CARTESIAN_POINT('',(0.0372583009302616,-0.0132373776567997,0.0015));
#1435=CARTESIAN_POINT('',(0.,-0.0132373776567997,0.0015));
#1436=CARTESIAN_POINT('',(0.0339660234749317,0.,0.0015));
#1437=CARTESIAN_POINT('',(0.0339660234749317,-0.0147755434736609,0.0015));
#1438=CARTESIAN_POINT('',(0.,-0.0147755434736609,0.0015));
#1439=CARTESIAN_POINT('',(0.019060980528593,-0.0147755434736609,0.0015));
#1440=CARTESIAN_POINT('',(0.019060980528593,0.,0.0015));
#1441=CARTESIAN_POINT('',(0.,0.,0.));
#1442=CARTESIAN_POINT('',(-0.038,0.024,0.029));
#1443=CARTESIAN_POINT('',(-0.038,0.0245,0.029));
#1444=CARTESIAN_POINT('',(-0.038,-0.0245,0.029));
#1445=CARTESIAN_POINT('',(-0.038,0.024,0.0295));
#1446=CARTESIAN_POINT('',(-0.038,0.0235,0.0295));
#1447=CARTESIAN_POINT('',(-0.038,0.0245,0.0295));
#1448=CARTESIAN_POINT('',(-0.038,0.0235,0.03));
#1449=CARTESIAN_POINT('',(-0.038,-0.0235,0.03));
#1450=CARTESIAN_POINT('',(-0.038,-0.0235,0.0295));
#1451=CARTESIAN_POINT('',(-0.038,-0.024,0.0295));
#1452=CARTESIAN_POINT('',(-0.038,-0.0245,0.0295));
#1453=CARTESIAN_POINT('',(-0.038,-0.0245,0.02925));
#1454=CARTESIAN_POINT('',(-0.038,0.0245,0.02925));
#1455=CARTESIAN_POINT('',(-0.0375,0.0112444446658714,0.0162304294258711));
#1456=CARTESIAN_POINT('',(-0.0375,0.0112444446658714,0.024460429425871));
#1457=CARTESIAN_POINT('',(-0.0375,0.0112444446658714,0.00800042942587106));
#1458=CARTESIAN_POINT('',(-0.0375,0.000519444665871381,0.00800042942587106));
#1459=CARTESIAN_POINT('',(-0.0375,-0.0102055553341286,0.00800042942587106));
#1460=CARTESIAN_POINT('',(-0.0375,-0.0102055553341286,0.0162304294258711));
#1461=CARTESIAN_POINT('',(-0.0375,-0.0102055553341286,0.024460429425871));
#1462=CARTESIAN_POINT('',(-0.0375,0.000519444665871382,0.024460429425871));
#1463=CARTESIAN_POINT('',(0.0339660234749317,-0.0140064605652303,0.005));
#1464=CARTESIAN_POINT('',(0.0339660234749317,-0.0147755434736609,0.005));
#1465=CARTESIAN_POINT('',(0.0339660234749317,-0.0147755434736609,0.005));
#1466=CARTESIAN_POINT('',(0.0339660234749317,-0.0140064605652303,0.005));
#1467=CARTESIAN_POINT('',(0.019060980528593,-0.0140064605652303,0.005));
#1468=CARTESIAN_POINT('',(0.019060980528593,-0.0147755434736609,0.005));
#1469=CARTESIAN_POINT('',(0.019060980528593,-0.0147755434736609,0.005));
#1470=CARTESIAN_POINT('',(0.019060980528593,-0.0140064605652303,0.005));
#1471=CARTESIAN_POINT('',(0.0265135020017624,-0.0147755434736609,0.005));
#1472=CARTESIAN_POINT('',(0.0265135020017624,-0.0147755434736609,0.005));
#1473=CARTESIAN_POINT('',(0.,0.,0.005));
#1474=CARTESIAN_POINT('',(0.0350495063378638,0.0116024385206401,0.005));
#1475=CARTESIAN_POINT('',(0.0350495063378638,0.0116026801988482,0.005));
#1476=CARTESIAN_POINT('',(0.0350495063378638,0.0116026801988482,0.005));
#1477=CARTESIAN_POINT('',(0.0350495063378638,0.011602196842432,0.005));
#1478=CARTESIAN_POINT('',(0.0350495063378638,0.011602196842432,0.005));
#1479=CARTESIAN_POINT('',(0.0350495063378638,0.0116024385206401,0.005));
#1480=CARTESIAN_POINT('',(0.0211495063378638,0.011602196842432,0.005));
#1481=CARTESIAN_POINT('',(0.0072495063378638,0.011602196842432,0.005));
#1482=CARTESIAN_POINT('',(0.0072495063378638,0.011602196842432,0.005));
#1483=CARTESIAN_POINT('',(0.0211495063378638,0.011602196842432,0.005));
#1484=CARTESIAN_POINT('',(0.0072495063378638,0.00998240959281617,0.005));
#1485=CARTESIAN_POINT('',(0.0072495063378638,0.00998240959281617,0.005));
#1486=CARTESIAN_POINT('',(0.0361539036340627,-0.0132373776567997,0.005));
#1487=CARTESIAN_POINT('',(0.0372583009302616,-0.0132373776567997,0.005));
#1488=CARTESIAN_POINT('',(0.0372583009302616,-0.0132373776567997,0.005));
#1489=CARTESIAN_POINT('',(0.0361539036340627,-0.0132373776567997,0.005));
#1490=CARTESIAN_POINT('',(0.0372583009302616,-0.000817348728975716,0.005));
#1491=CARTESIAN_POINT('',(0.0372583009302616,0.0116026801988482,0.005));
#1492=CARTESIAN_POINT('',(0.0372583009302616,0.0116026801988482,0.005));
#1493=CARTESIAN_POINT('',(0.0372583009302616,-0.000817348728975716,0.005));
#1494=CARTESIAN_POINT('',(0.0361539036340627,0.0116026801988482,0.005));
#1495=CARTESIAN_POINT('',(0.0361539036340627,0.0116026801988482,0.005));
#1496=CARTESIAN_POINT('',(0.,0.,0.005));
#1497=MECHANICAL_DESIGN_GEOMETRIC_PRESENTATION_REPRESENTATION('',(#912),
#1498);
#1498=(
GEOMETRIC_REPRESENTATION_CONTEXT(3)
GLOBAL_UNCERTAINTY_ASSIGNED_CONTEXT((#1499))
GLOBAL_UNIT_ASSIGNED_CONTEXT((#1502,#1501,#1500))
REPRESENTATION_CONTEXT('body','TOP_LEVEL_ASSEMBLY_PART')
);
#1499=UNCERTAINTY_MEASURE_WITH_UNIT(LENGTH_MEASURE(1.E-8),#1502,
'DISTANCE_ACCURACY_VALUE','Maximum Tolerance applied to model');
#1500=(
NAMED_UNIT(*)
SI_UNIT($,.STERADIAN.)
SOLID_ANGLE_UNIT()
);
#1501=(
NAMED_UNIT(*)
PLANE_ANGLE_UNIT()
SI_UNIT($,.RADIAN.)
);
#1502=(
LENGTH_UNIT()
NAMED_UNIT(*)
SI_UNIT($,.METRE.)
);
#1503=PRODUCT_DEFINITION_SHAPE('','',#1504);
#1504=PRODUCT_DEFINITION('','',#1506,#1505);
#1505=PRODUCT_DEFINITION_CONTEXT('',#1512,'design');
#1506=PRODUCT_DEFINITION_FORMATION_WITH_SPECIFIED_SOURCE('','',#1508,
 .NOT_KNOWN.);
#1507=PRODUCT_RELATED_PRODUCT_CATEGORY('','',(#1508));
#1508=PRODUCT('body','body','body',(#1510));
#1509=PRODUCT_CATEGORY('','');
#1510=PRODUCT_CONTEXT('',#1512,'mechanical');
#1511=APPLICATION_PROTOCOL_DEFINITION('international standard',
'ap242_managed_model_based_3d_engineering',2020,#1512);
#1512=APPLICATION_CONTEXT('managed model based 3d engineering');
ENDSEC;
END-ISO-10303-21;
