ISO-10303-21;
HEADER;
/* Generated by software containing ST-Developer
 * from STEP Tools, Inc. (www.steptools.com) 
 */
/* OPTION: using custom renumber hook */

FILE_DESCRIPTION(
/* description */ ('STEP AP242 Edition 2',
'CAx-IF Rec.Pracs.---Representation and Presentation of Product Manufa
cturing Information (PMI)---4.0---2014-10-13',
'CAx-IF Rec.Pracs.---3D Tessellated Geometry---0.4---2014-09-14','2;1',
'CAx-IF Rec.Pracs.---User Defined Attributes---1.5---2016-08-15'),
/* implementation_level */ '2;1');

FILE_NAME(
/* name */ 'enclosure - lid',
/* time_stamp */ '2026-09-24T05:56:22Z',
/* author */ (''),
/* organization */ (''),
/* preprocessor_version */ 'ST-DEVELOPER v20',
/* originating_system */ 'ONSHAPE BY PTC INC, 1.221',
/* authorisation */ '  ');

FILE_SCHEMA (('AP242_MANAGED_MODEL_BASED_3D_ENGINEERING_MIM_LF { 1 0 10303 442 3 1 4 }'));
ENDSEC;

DATA;
#10=SHAPE_REPRESENTATION_RELATIONSHIP('','',#359,#11);
#11=ADVANCED_BREP_SHAPE_REPRESENTATION('',(#357),#581);
#12=PLANE('',#373);
#13=PLANE('',#374);
#14=PLANE('',#375);
#15=PLANE('',#376);
#16=PLANE('',#377);
#17=PLANE('',#378);
#18=PLANE('',#379);
#19=PLANE('',#380);
#20=PLANE('',#381);
#21=PLANE('',#382);
#22=PLANE('',#383);
#23=PLANE('',#384);
#24=PLANE('',#385);
#25=PLANE('',#386);
#26=CIRCLE('',#362,0.0015);
#27=CIRCLE('',#363,0.0015);
#28=CIRCLE('',#365,0.0015);
#29=CIRCLE('',#366,0.0015);
#30=CIRCLE('',#368,0.0015);
#31=CIRCLE('',#369,0.0015);
#32=CIRCLE('',#371,0.0015);
#33=CIRCLE('',#372,0.0015);
#34=ORIENTED_EDGE('',*,*,#130,.F.);
#35=ORIENTED_EDGE('',*,*,#131,.F.);
#36=ORIENTED_EDGE('',*,*,#132,.F.);
#37=ORIENTED_EDGE('',*,*,#133,.F.);
#38=ORIENTED_EDGE('',*,*,#134,.F.);
#39=ORIENTED_EDGE('',*,*,#135,.F.);
#40=ORIENTED_EDGE('',*,*,#136,.F.);
#41=ORIENTED_EDGE('',*,*,#137,.F.);
#42=ORIENTED_EDGE('',*,*,#138,.F.);
#43=ORIENTED_EDGE('',*,*,#139,.F.);
#44=ORIENTED_EDGE('',*,*,#140,.F.);
#45=ORIENTED_EDGE('',*,*,#141,.F.);
#46=ORIENTED_EDGE('',*,*,#142,.F.);
#47=ORIENTED_EDGE('',*,*,#143,.F.);
#48=ORIENTED_EDGE('',*,*,#144,.F.);
#49=ORIENTED_EDGE('',*,*,#145,.F.);
#50=ORIENTED_EDGE('',*,*,#146,.F.);
#51=ORIENTED_EDGE('',*,*,#131,.T.);
#52=ORIENTED_EDGE('',*,*,#147,.F.);
#53=ORIENTED_EDGE('',*,*,#148,.T.);
#54=ORIENTED_EDGE('',*,*,#149,.T.);
#55=ORIENTED_EDGE('',*,*,#142,.T.);
#56=ORIENTED_EDGE('',*,*,#150,.F.);
#57=ORIENTED_EDGE('',*,*,#148,.F.);
#58=ORIENTED_EDGE('',*,*,#151,.T.);
#59=ORIENTED_EDGE('',*,*,#152,.T.);
#60=ORIENTED_EDGE('',*,*,#153,.F.);
#61=ORIENTED_EDGE('',*,*,#152,.F.);
#62=ORIENTED_EDGE('',*,*,#154,.T.);
#63=ORIENTED_EDGE('',*,*,#155,.T.);
#64=ORIENTED_EDGE('',*,*,#156,.F.);
#65=ORIENTED_EDGE('',*,*,#155,.F.);
#66=ORIENTED_EDGE('',*,*,#157,.T.);
#67=ORIENTED_EDGE('',*,*,#158,.T.);
#68=ORIENTED_EDGE('',*,*,#159,.T.);
#69=ORIENTED_EDGE('',*,*,#158,.F.);
#70=ORIENTED_EDGE('',*,*,#160,.F.);
#71=ORIENTED_EDGE('',*,*,#161,.T.);
#72=ORIENTED_EDGE('',*,*,#162,.T.);
#73=ORIENTED_EDGE('',*,*,#161,.F.);
#74=ORIENTED_EDGE('',*,*,#163,.F.);
#75=ORIENTED_EDGE('',*,*,#164,.T.);
#76=ORIENTED_EDGE('',*,*,#165,.T.);
#77=ORIENTED_EDGE('',*,*,#164,.F.);
#78=ORIENTED_EDGE('',*,*,#166,.F.);
#79=ORIENTED_EDGE('',*,*,#167,.T.);
#80=ORIENTED_EDGE('',*,*,#168,.T.);
#81=ORIENTED_EDGE('',*,*,#167,.F.);
#82=ORIENTED_EDGE('',*,*,#169,.F.);
#83=ORIENTED_EDGE('',*,*,#170,.T.);
#84=ORIENTED_EDGE('',*,*,#171,.T.);
#85=ORIENTED_EDGE('',*,*,#137,.T.);
#86=ORIENTED_EDGE('',*,*,#172,.T.);
#87=ORIENTED_EDGE('',*,*,#141,.T.);
#88=ORIENTED_EDGE('',*,*,#173,.F.);
#89=ORIENTED_EDGE('',*,*,#170,.F.);
#90=ORIENTED_EDGE('',*,*,#172,.F.);
#91=ORIENTED_EDGE('',*,*,#136,.T.);
#92=ORIENTED_EDGE('',*,*,#174,.T.);
#93=ORIENTED_EDGE('',*,*,#138,.T.);
#94=ORIENTED_EDGE('',*,*,#174,.F.);
#95=ORIENTED_EDGE('',*,*,#135,.T.);
#96=ORIENTED_EDGE('',*,*,#175,.T.);
#97=ORIENTED_EDGE('',*,*,#133,.T.);
#98=ORIENTED_EDGE('',*,*,#176,.T.);
#99=ORIENTED_EDGE('',*,*,#144,.T.);
#100=ORIENTED_EDGE('',*,*,#177,.F.);
#101=ORIENTED_EDGE('',*,*,#139,.T.);
#102=ORIENTED_EDGE('',*,*,#176,.F.);
#103=ORIENTED_EDGE('',*,*,#132,.T.);
#104=ORIENTED_EDGE('',*,*,#146,.T.);
#105=ORIENTED_EDGE('',*,*,#145,.T.);
#106=ORIENTED_EDGE('',*,*,#175,.F.);
#107=ORIENTED_EDGE('',*,*,#134,.T.);
#108=ORIENTED_EDGE('',*,*,#171,.F.);
#109=ORIENTED_EDGE('',*,*,#169,.T.);
#110=ORIENTED_EDGE('',*,*,#166,.T.);
#111=ORIENTED_EDGE('',*,*,#163,.T.);
#112=ORIENTED_EDGE('',*,*,#160,.T.);
#113=ORIENTED_EDGE('',*,*,#157,.F.);
#114=ORIENTED_EDGE('',*,*,#154,.F.);
#115=ORIENTED_EDGE('',*,*,#151,.F.);
#116=ORIENTED_EDGE('',*,*,#147,.T.);
#117=ORIENTED_EDGE('',*,*,#130,.T.);
#118=ORIENTED_EDGE('',*,*,#177,.T.);
#119=ORIENTED_EDGE('',*,*,#143,.T.);
#120=ORIENTED_EDGE('',*,*,#149,.F.);
#121=ORIENTED_EDGE('',*,*,#150,.T.);
#122=ORIENTED_EDGE('',*,*,#153,.T.);
#123=ORIENTED_EDGE('',*,*,#156,.T.);
#124=ORIENTED_EDGE('',*,*,#159,.F.);
#125=ORIENTED_EDGE('',*,*,#162,.F.);
#126=ORIENTED_EDGE('',*,*,#165,.F.);
#127=ORIENTED_EDGE('',*,*,#168,.F.);
#128=ORIENTED_EDGE('',*,*,#173,.T.);
#129=ORIENTED_EDGE('',*,*,#140,.T.);
#130=EDGE_CURVE('',#178,#179,#210,.T.);
#131=EDGE_CURVE('',#180,#178,#26,.F.);
#132=EDGE_CURVE('',#181,#180,#211,.F.);
#133=EDGE_CURVE('',#179,#181,#27,.T.);
#134=EDGE_CURVE('',#182,#183,#212,.T.);
#135=EDGE_CURVE('',#184,#182,#28,.T.);
#136=EDGE_CURVE('',#185,#184,#213,.F.);
#137=EDGE_CURVE('',#183,#185,#29,.T.);
#138=EDGE_CURVE('',#186,#187,#214,.T.);
#139=EDGE_CURVE('',#188,#186,#30,.T.);
#140=EDGE_CURVE('',#189,#188,#215,.F.);
#141=EDGE_CURVE('',#187,#189,#31,.T.);
#142=EDGE_CURVE('',#190,#191,#32,.F.);
#143=EDGE_CURVE('',#192,#190,#216,.F.);
#144=EDGE_CURVE('',#193,#192,#33,.T.);
#145=EDGE_CURVE('',#191,#193,#217,.T.);
#146=EDGE_CURVE('',#180,#191,#218,.T.);
#147=EDGE_CURVE('',#194,#178,#219,.T.);
#148=EDGE_CURVE('',#194,#195,#220,.T.);
#149=EDGE_CURVE('',#195,#190,#221,.T.);
#150=EDGE_CURVE('',#195,#196,#222,.T.);
#151=EDGE_CURVE('',#194,#197,#223,.T.);
#152=EDGE_CURVE('',#197,#196,#224,.T.);
#153=EDGE_CURVE('',#196,#198,#225,.T.);
#154=EDGE_CURVE('',#197,#199,#226,.T.);
#155=EDGE_CURVE('',#199,#198,#227,.T.);
#156=EDGE_CURVE('',#198,#200,#228,.T.);
#157=EDGE_CURVE('',#199,#201,#229,.T.);
#158=EDGE_CURVE('',#201,#200,#230,.T.);
#159=EDGE_CURVE('',#202,#200,#231,.T.);
#160=EDGE_CURVE('',#203,#201,#232,.T.);
#161=EDGE_CURVE('',#203,#202,#233,.T.);
#162=EDGE_CURVE('',#204,#202,#234,.T.);
#163=EDGE_CURVE('',#205,#203,#235,.T.);
#164=EDGE_CURVE('',#205,#204,#236,.T.);
#165=EDGE_CURVE('',#206,#204,#237,.T.);
#166=EDGE_CURVE('',#207,#205,#238,.T.);
#167=EDGE_CURVE('',#207,#206,#239,.T.);
#168=EDGE_CURVE('',#208,#206,#240,.T.);
#169=EDGE_CURVE('',#209,#207,#241,.T.);
#170=EDGE_CURVE('',#209,#208,#242,.T.);
#171=EDGE_CURVE('',#209,#183,#243,.T.);
#172=EDGE_CURVE('',#185,#187,#244,.T.);
#173=EDGE_CURVE('',#208,#189,#245,.T.);
#174=EDGE_CURVE('',#184,#186,#246,.T.);
#175=EDGE_CURVE('',#182,#179,#247,.T.);
#176=EDGE_CURVE('',#181,#193,#248,.T.);
#177=EDGE_CURVE('',#188,#192,#249,.T.);
#178=VERTEX_POINT('',#484);
#179=VERTEX_POINT('',#485);
#180=VERTEX_POINT('',#487);
#181=VERTEX_POINT('',#489);
#182=VERTEX_POINT('',#493);
#183=VERTEX_POINT('',#494);
#184=VERTEX_POINT('',#496);
#185=VERTEX_POINT('',#498);
#186=VERTEX_POINT('',#502);
#187=VERTEX_POINT('',#503);
#188=VERTEX_POINT('',#505);
#189=VERTEX_POINT('',#507);
#190=VERTEX_POINT('',#511);
#191=VERTEX_POINT('',#512);
#192=VERTEX_POINT('',#514);
#193=VERTEX_POINT('',#516);
#194=VERTEX_POINT('',#521);
#195=VERTEX_POINT('',#523);
#196=VERTEX_POINT('',#527);
#197=VERTEX_POINT('',#529);
#198=VERTEX_POINT('',#533);
#199=VERTEX_POINT('',#535);
#200=VERTEX_POINT('',#539);
#201=VERTEX_POINT('',#541);
#202=VERTEX_POINT('',#545);
#203=VERTEX_POINT('',#547);
#204=VERTEX_POINT('',#551);
#205=VERTEX_POINT('',#553);
#206=VERTEX_POINT('',#557);
#207=VERTEX_POINT('',#559);
#208=VERTEX_POINT('',#563);
#209=VERTEX_POINT('',#565);
#210=LINE('',#483,#250);
#211=LINE('',#488,#251);
#212=LINE('',#492,#252);
#213=LINE('',#497,#253);
#214=LINE('',#501,#254);
#215=LINE('',#506,#255);
#216=LINE('',#513,#256);
#217=LINE('',#517,#257);
#218=LINE('',#519,#258);
#219=LINE('',#520,#259);
#220=LINE('',#522,#260);
#221=LINE('',#524,#261);
#222=LINE('',#526,#262);
#223=LINE('',#528,#263);
#224=LINE('',#530,#264);
#225=LINE('',#532,#265);
#226=LINE('',#534,#266);
#227=LINE('',#536,#267);
#228=LINE('',#538,#268);
#229=LINE('',#540,#269);
#230=LINE('',#542,#270);
#231=LINE('',#544,#271);
#232=LINE('',#546,#272);
#233=LINE('',#548,#273);
#234=LINE('',#550,#274);
#235=LINE('',#552,#275);
#236=LINE('',#554,#276);
#237=LINE('',#556,#277);
#238=LINE('',#558,#278);
#239=LINE('',#560,#279);
#240=LINE('',#562,#280);
#241=LINE('',#564,#281);
#242=LINE('',#566,#282);
#243=LINE('',#568,#283);
#244=LINE('',#569,#284);
#245=LINE('',#570,#285);
#246=LINE('',#572,#286);
#247=LINE('',#574,#287);
#248=LINE('',#575,#288);
#249=LINE('',#576,#289);
#250=VECTOR('',#391,1.);
#251=VECTOR('',#394,1.);
#252=VECTOR('',#399,1.);
#253=VECTOR('',#402,1.);
#254=VECTOR('',#407,1.);
#255=VECTOR('',#410,1.);
#256=VECTOR('',#417,1.);
#257=VECTOR('',#420,1.);
#258=VECTOR('',#423,1.);
#259=VECTOR('',#424,1.);
#260=VECTOR('',#425,1.);
#261=VECTOR('',#426,1.);
#262=VECTOR('',#429,1.);
#263=VECTOR('',#430,1.);
#264=VECTOR('',#431,1.);
#265=VECTOR('',#434,1.);
#266=VECTOR('',#435,1.);
#267=VECTOR('',#436,1.);
#268=VECTOR('',#439,1.);
#269=VECTOR('',#440,1.);
#270=VECTOR('',#441,1.);
#271=VECTOR('',#444,1.);
#272=VECTOR('',#445,1.);
#273=VECTOR('',#446,1.);
#274=VECTOR('',#449,1.);
#275=VECTOR('',#450,1.);
#276=VECTOR('',#451,1.);
#277=VECTOR('',#454,1.);
#278=VECTOR('',#455,1.);
#279=VECTOR('',#456,1.);
#280=VECTOR('',#459,1.);
#281=VECTOR('',#460,1.);
#282=VECTOR('',#461,1.);
#283=VECTOR('',#464,1.);
#284=VECTOR('',#465,1.);
#285=VECTOR('',#466,1.);
#286=VECTOR('',#469,1.);
#287=VECTOR('',#472,1.);
#288=VECTOR('',#473,1.);
#289=VECTOR('',#474,1.);
#290=EDGE_LOOP('',(#34,#35,#36,#37));
#291=EDGE_LOOP('',(#38,#39,#40,#41));
#292=EDGE_LOOP('',(#42,#43,#44,#45));
#293=EDGE_LOOP('',(#46,#47,#48,#49));
#294=EDGE_LOOP('',(#50,#51,#52,#53,#54,#55));
#295=EDGE_LOOP('',(#56,#57,#58,#59));
#296=EDGE_LOOP('',(#60,#61,#62,#63));
#297=EDGE_LOOP('',(#64,#65,#66,#67));
#298=EDGE_LOOP('',(#68,#69,#70,#71));
#299=EDGE_LOOP('',(#72,#73,#74,#75));
#300=EDGE_LOOP('',(#76,#77,#78,#79));
#301=EDGE_LOOP('',(#80,#81,#82,#83));
#302=EDGE_LOOP('',(#84,#85,#86,#87,#88,#89));
#303=EDGE_LOOP('',(#90,#91,#92,#93));
#304=EDGE_LOOP('',(#94,#95,#96,#97,#98,#99,#100,#101));
#305=EDGE_LOOP('',(#102,#103,#104,#105));
#306=EDGE_LOOP('',(#106,#107,#108,#109,#110,#111,#112,#113,#114,#115,#116,
#117));
#307=EDGE_LOOP('',(#118,#119,#120,#121,#122,#123,#124,#125,#126,#127,#128,
#129));
#308=FACE_BOUND('',#290,.T.);
#309=FACE_BOUND('',#291,.T.);
#310=FACE_BOUND('',#292,.T.);
#311=FACE_BOUND('',#293,.T.);
#312=FACE_BOUND('',#294,.T.);
#313=FACE_BOUND('',#295,.T.);
#314=FACE_BOUND('',#296,.T.);
#315=FACE_BOUND('',#297,.T.);
#316=FACE_BOUND('',#298,.T.);
#317=FACE_BOUND('',#299,.T.);
#318=FACE_BOUND('',#300,.T.);
#319=FACE_BOUND('',#301,.T.);
#320=FACE_BOUND('',#302,.T.);
#321=FACE_BOUND('',#303,.T.);
#322=FACE_BOUND('',#304,.T.);
#323=FACE_BOUND('',#305,.T.);
#324=FACE_BOUND('',#306,.T.);
#325=FACE_BOUND('',#307,.T.);
#326=CYLINDRICAL_SURFACE('',#361,0.0015);
#327=CYLINDRICAL_SURFACE('',#364,0.0015);
#328=CYLINDRICAL_SURFACE('',#367,0.0015);
#329=CYLINDRICAL_SURFACE('',#370,0.0015);
#330=ADVANCED_FACE('',(#308),#326,.T.);
#331=ADVANCED_FACE('',(#309),#327,.T.);
#332=ADVANCED_FACE('',(#310),#328,.T.);
#333=ADVANCED_FACE('',(#311),#329,.T.);
#334=ADVANCED_FACE('',(#312),#12,.F.);
#335=ADVANCED_FACE('',(#313),#13,.T.);
#336=ADVANCED_FACE('',(#314),#14,.T.);
#337=ADVANCED_FACE('',(#315),#15,.T.);
#338=ADVANCED_FACE('',(#316),#16,.F.);
#339=ADVANCED_FACE('',(#317),#17,.F.);
#340=ADVANCED_FACE('',(#318),#18,.F.);
#341=ADVANCED_FACE('',(#319),#19,.F.);
#342=ADVANCED_FACE('',(#320),#20,.T.);
#343=ADVANCED_FACE('',(#321),#21,.F.);
#344=ADVANCED_FACE('',(#322),#22,.T.);
#345=ADVANCED_FACE('',(#323),#23,.T.);
#346=ADVANCED_FACE('',(#324),#24,.F.);
#347=ADVANCED_FACE('',(#325),#25,.T.);
#348=CLOSED_SHELL('',(#330,#331,#332,#333,#334,#335,#336,#337,#338,#339,
#340,#341,#342,#343,#344,#345,#346,#347));
#349=STYLED_ITEM('',(#350),#357);
#350=PRESENTATION_STYLE_ASSIGNMENT((#351));
#351=SURFACE_STYLE_USAGE(.BOTH.,#352);
#352=SURFACE_SIDE_STYLE('',(#353));
#353=SURFACE_STYLE_FILL_AREA(#354);
#354=FILL_AREA_STYLE('',(#355));
#355=FILL_AREA_STYLE_COLOUR('',#356);
#356=COLOUR_RGB('',0.647058823529412,0.647058823529412,0.647058823529412);
#357=MANIFOLD_SOLID_BREP('lid',#348);
#358=SHAPE_DEFINITION_REPRESENTATION(#586,#359);
#359=SHAPE_REPRESENTATION('lid',(#360),#581);
#360=AXIS2_PLACEMENT_3D('',#481,#387,#388);
#361=AXIS2_PLACEMENT_3D('',#482,#389,#390);
#362=AXIS2_PLACEMENT_3D('',#486,#392,#393);
#363=AXIS2_PLACEMENT_3D('',#490,#395,#396);
#364=AXIS2_PLACEMENT_3D('',#491,#397,#398);
#365=AXIS2_PLACEMENT_3D('',#495,#400,#401);
#366=AXIS2_PLACEMENT_3D('',#499,#403,#404);
#367=AXIS2_PLACEMENT_3D('',#500,#405,#406);
#368=AXIS2_PLACEMENT_3D('',#504,#408,#409);
#369=AXIS2_PLACEMENT_3D('',#508,#411,#412);
#370=AXIS2_PLACEMENT_3D('',#509,#413,#414);
#371=AXIS2_PLACEMENT_3D('',#510,#415,#416);
#372=AXIS2_PLACEMENT_3D('',#515,#418,#419);
#373=AXIS2_PLACEMENT_3D('',#518,#421,#422);
#374=AXIS2_PLACEMENT_3D('',#525,#427,#428);
#375=AXIS2_PLACEMENT_3D('',#531,#432,#433);
#376=AXIS2_PLACEMENT_3D('',#537,#437,#438);
#377=AXIS2_PLACEMENT_3D('',#543,#442,#443);
#378=AXIS2_PLACEMENT_3D('',#549,#447,#448);
#379=AXIS2_PLACEMENT_3D('',#555,#452,#453);
#380=AXIS2_PLACEMENT_3D('',#561,#457,#458);
#381=AXIS2_PLACEMENT_3D('',#567,#462,#463);
#382=AXIS2_PLACEMENT_3D('',#571,#467,#468);
#383=AXIS2_PLACEMENT_3D('',#573,#470,#471);
#384=AXIS2_PLACEMENT_3D('',#577,#475,#476);
#385=AXIS2_PLACEMENT_3D('',#578,#477,#478);
#386=AXIS2_PLACEMENT_3D('',#579,#479,#480);
#387=DIRECTION('',(0.,0.,1.));
#388=DIRECTION('',(1.,0.,0.));
#389=DIRECTION('',(0.,0.,-1.));
#390=DIRECTION('',(-1.,0.,0.));
#391=DIRECTION('',(0.,0.,1.));
#392=DIRECTION('',(0.,0.,1.));
#393=DIRECTION('',(1.,0.,0.));
#394=DIRECTION('',(0.,0.,1.));
#395=DIRECTION('',(0.,0.,1.));
#396=DIRECTION('',(1.,0.,0.));
#397=DIRECTION('',(0.,0.,-1.));
#398=DIRECTION('',(-1.,0.,0.));
#399=DIRECTION('',(0.,0.,-1.));
#400=DIRECTION('',(0.,0.,1.));
#401=DIRECTION('',(1.,0.,0.));
#402=DIRECTION('',(0.,0.,-1.));
#403=DIRECTION('',(0.,0.,-1.));
#404=DIRECTION('',(-1.,0.,0.));
#405=DIRECTION('',(0.,0.,1.));
#406=DIRECTION('',(1.,0.,0.));
#407=DIRECTION('',(0.,0.,-1.));
#408=DIRECTION('',(0.,0.,1.));
#409=DIRECTION('',(1.,0.,0.));
#410=DIRECTION('',(0.,0.,-1.));
#411=DIRECTION('',(0.,0.,-1.));
#412=DIRECTION('',(-1.,0.,0.));
#413=DIRECTION('',(0.,0.,1.));
#414=DIRECTION('',(1.,0.,0.));
#415=DIRECTION('',(0.,0.,1.));
#416=DIRECTION('',(1.,0.,0.));
#417=DIRECTION('',(0.,0.,1.));
#418=DIRECTION('',(0.,0.,1.));
#419=DIRECTION('',(1.,0.,0.));
#420=DIRECTION('',(0.,0.,1.));
#421=DIRECTION('',(0.,0.,1.));
#422=DIRECTION('',(1.,0.,0.));
#423=DIRECTION('',(1.,2.77555756156289E-16,0.));
#424=DIRECTION('',(2.77555756156289E-16,-1.,0.));
#425=DIRECTION('',(1.,2.77555756156289E-16,0.));
#426=DIRECTION('',(2.77555756156289E-16,-1.,0.));
#427=DIRECTION('',(2.77555756156289E-16,-1.,0.));
#428=DIRECTION('',(1.,2.77555756156289E-16,0.));
#429=DIRECTION('',(0.,0.,-1.));
#430=DIRECTION('',(0.,0.,-1.));
#431=DIRECTION('',(1.,2.77555756156289E-16,0.));
#432=DIRECTION('',(0.,0.,1.));
#433=DIRECTION('',(1.,0.,0.));
#434=DIRECTION('',(2.77555756156289E-16,-1.,0.));
#435=DIRECTION('',(2.77555756156289E-16,-1.,0.));
#436=DIRECTION('',(1.,2.77555756156289E-16,0.));
#437=DIRECTION('',(2.77555756156289E-16,-1.,0.));
#438=DIRECTION('',(1.,2.77555756156289E-16,0.));
#439=DIRECTION('',(0.,0.,-1.));
#440=DIRECTION('',(0.,0.,-1.));
#441=DIRECTION('',(1.,2.77555756156289E-16,0.));
#442=DIRECTION('',(0.,0.,1.));
#443=DIRECTION('',(1.,0.,0.));
#444=DIRECTION('',(2.77555756156289E-16,-1.,0.));
#445=DIRECTION('',(2.77555756156289E-16,-1.,0.));
#446=DIRECTION('',(1.,2.77555756156289E-16,0.));
#447=DIRECTION('',(2.77555756156289E-16,-1.,0.));
#448=DIRECTION('',(1.,2.77555756156289E-16,0.));
#449=DIRECTION('',(0.,0.,-1.));
#450=DIRECTION('',(0.,0.,-1.));
#451=DIRECTION('',(1.,2.77555756156289E-16,0.));
#452=DIRECTION('',(0.,0.,-1.));
#453=DIRECTION('',(-1.,0.,0.));
#454=DIRECTION('',(-2.77555756156289E-16,1.,0.));
#455=DIRECTION('',(-2.77555756156289E-16,1.,0.));
#456=DIRECTION('',(1.,2.77555756156289E-16,0.));
#457=DIRECTION('',(2.77555756156289E-16,-1.,0.));
#458=DIRECTION('',(1.,2.77555756156289E-16,0.));
#459=DIRECTION('',(0.,0.,-1.));
#460=DIRECTION('',(0.,0.,-1.));
#461=DIRECTION('',(1.,2.77555756156289E-16,0.));
#462=DIRECTION('',(0.,0.,-1.));
#463=DIRECTION('',(-1.,0.,0.));
#464=DIRECTION('',(-2.77555756156289E-16,1.,0.));
#465=DIRECTION('',(1.,2.77555756156289E-16,0.));
#466=DIRECTION('',(-2.77555756156289E-16,1.,0.));
#467=DIRECTION('',(2.77555756156289E-16,-1.,0.));
#468=DIRECTION('',(1.,2.77555756156289E-16,0.));
#469=DIRECTION('',(1.,2.77555756156289E-16,0.));
#470=DIRECTION('',(0.,0.,1.));
#471=DIRECTION('',(1.,0.,0.));
#472=DIRECTION('',(2.77555756156289E-16,-1.,0.));
#473=DIRECTION('',(1.,2.77555756156289E-16,0.));
#474=DIRECTION('',(2.77555756156289E-16,-1.,0.));
#475=DIRECTION('',(2.77555756156289E-16,-1.,0.));
#476=DIRECTION('',(1.,2.77555756156289E-16,0.));
#477=DIRECTION('',(1.,2.77555756156289E-16,0.));
#478=DIRECTION('',(-2.77555756156289E-16,1.,0.));
#479=DIRECTION('',(1.,2.77555756156289E-16,0.));
#480=DIRECTION('',(-2.77555756156289E-16,1.,0.));
#481=CARTESIAN_POINT('',(0.,0.,0.));
#482=CARTESIAN_POINT('',(0.0535,-0.0235,0.0159121317490935));
#483=CARTESIAN_POINT('',(0.052,-0.0235,0.0159121317490935));
#484=CARTESIAN_POINT('',(0.052,-0.0235,0.03005));
#485=CARTESIAN_POINT('',(0.052,-0.0235,0.030324263498187));
#486=CARTESIAN_POINT('',(0.0535,-0.0235,0.03005));
#487=CARTESIAN_POINT('',(0.0535,-0.025,0.03005));
#488=CARTESIAN_POINT('',(0.0535,-0.025,0.0159121317490935));
#489=CARTESIAN_POINT('',(0.0535,-0.025,0.030324263498187));
#490=CARTESIAN_POINT('',(0.0535,-0.0235,0.030324263498187));
#491=CARTESIAN_POINT('',(0.0535,0.0235,0.0159121317490935));
#492=CARTESIAN_POINT('',(0.052,0.0235,0.0159121317490935));
#493=CARTESIAN_POINT('',(0.052,0.0235,0.030324263498187));
#494=CARTESIAN_POINT('',(0.052,0.0235,0.03005));
#495=CARTESIAN_POINT('',(0.0535,0.0235,0.030324263498187));
#496=CARTESIAN_POINT('',(0.0535,0.025,0.030324263498187));
#497=CARTESIAN_POINT('',(0.0535,0.025,0.0301871317490936));
#498=CARTESIAN_POINT('',(0.0535,0.025,0.03005));
#499=CARTESIAN_POINT('',(0.0535,0.0235,0.03005));
#500=CARTESIAN_POINT('',(0.1285,0.0235,0.0301871317490936));
#501=CARTESIAN_POINT('',(0.1285,0.025,0.0301871317490936));
#502=CARTESIAN_POINT('',(0.1285,0.025,0.030324263498187));
#503=CARTESIAN_POINT('',(0.1285,0.025,0.03005));
#504=CARTESIAN_POINT('',(0.1285,0.0235,0.030324263498187));
#505=CARTESIAN_POINT('',(0.13,0.0235,0.030324263498187));
#506=CARTESIAN_POINT('',(0.13,0.0235,0.0301871317490936));
#507=CARTESIAN_POINT('',(0.13,0.0235,0.03005));
#508=CARTESIAN_POINT('',(0.1285,0.0235,0.03005));
#509=CARTESIAN_POINT('',(0.1285,-0.0235,0.0301871317490936));
#510=CARTESIAN_POINT('',(0.1285,-0.0235,0.03005));
#511=CARTESIAN_POINT('',(0.13,-0.0235,0.03005));
#512=CARTESIAN_POINT('',(0.1285,-0.025,0.03005));
#513=CARTESIAN_POINT('',(0.13,-0.0235,0.0159121317490935));
#514=CARTESIAN_POINT('',(0.13,-0.0235,0.030324263498187));
#515=CARTESIAN_POINT('',(0.1285,-0.0235,0.030324263498187));
#516=CARTESIAN_POINT('',(0.1285,-0.025,0.030324263498187));
#517=CARTESIAN_POINT('',(0.1285,-0.025,0.0301871317490936));
#518=CARTESIAN_POINT('',(0.052,-0.024225,0.03005));
#519=CARTESIAN_POINT('',(0.052,-0.025,0.03005));
#520=CARTESIAN_POINT('',(0.052,-0.024225,0.03005));
#521=CARTESIAN_POINT('',(0.052,-0.02345,0.03005));
#522=CARTESIAN_POINT('',(0.052,-0.02345,0.03005));
#523=CARTESIAN_POINT('',(0.13,-0.02345,0.03005));
#524=CARTESIAN_POINT('',(0.13,-0.024225,0.03005));
#525=CARTESIAN_POINT('',(0.052,-0.02345,0.02975));
#526=CARTESIAN_POINT('',(0.13,-0.02345,0.02975));
#527=CARTESIAN_POINT('',(0.13,-0.02345,0.02945));
#528=CARTESIAN_POINT('',(0.052,-0.02345,0.02975));
#529=CARTESIAN_POINT('',(0.052,-0.02345,0.02945));
#530=CARTESIAN_POINT('',(0.052,-0.02345,0.02945));
#531=CARTESIAN_POINT('',(0.052,-0.023975,0.02945));
#532=CARTESIAN_POINT('',(0.13,-0.023975,0.02945));
#533=CARTESIAN_POINT('',(0.13,-0.02445,0.02945));
#534=CARTESIAN_POINT('',(0.052,-0.023975,0.02945));
#535=CARTESIAN_POINT('',(0.052,-0.02445,0.02945));
#536=CARTESIAN_POINT('',(0.052,-0.02445,0.02945));
#537=CARTESIAN_POINT('',(0.052,-0.02445,0.02925));
#538=CARTESIAN_POINT('',(0.13,-0.02445,0.02925));
#539=CARTESIAN_POINT('',(0.13,-0.02445,0.02905));
#540=CARTESIAN_POINT('',(0.052,-0.02445,0.02925));
#541=CARTESIAN_POINT('',(0.052,-0.02445,0.02905));
#542=CARTESIAN_POINT('',(0.052,-0.02445,0.02905));
#543=CARTESIAN_POINT('',(0.052,-0.011725,0.02905));
#544=CARTESIAN_POINT('',(0.13,-0.011725,0.02905));
#545=CARTESIAN_POINT('',(0.13,0.02445,0.02905));
#546=CARTESIAN_POINT('',(0.052,-0.011725,0.02905));
#547=CARTESIAN_POINT('',(0.052,0.02445,0.02905));
#548=CARTESIAN_POINT('',(0.052,0.02445,0.02905));
#549=CARTESIAN_POINT('',(0.052,0.02445,0.02925));
#550=CARTESIAN_POINT('',(0.13,0.02445,0.02925));
#551=CARTESIAN_POINT('',(0.13,0.02445,0.02945));
#552=CARTESIAN_POINT('',(0.052,0.02445,0.02925));
#553=CARTESIAN_POINT('',(0.052,0.02445,0.02945));
#554=CARTESIAN_POINT('',(0.052,0.02445,0.02945));
#555=CARTESIAN_POINT('',(0.052,0.023975,0.02945));
#556=CARTESIAN_POINT('',(0.13,0.023975,0.02945));
#557=CARTESIAN_POINT('',(0.13,0.02345,0.02945));
#558=CARTESIAN_POINT('',(0.052,0.023975,0.02945));
#559=CARTESIAN_POINT('',(0.052,0.02345,0.02945));
#560=CARTESIAN_POINT('',(0.052,0.02345,0.02945));
#561=CARTESIAN_POINT('',(0.052,0.02345,0.0296));
#562=CARTESIAN_POINT('',(0.13,0.02345,0.0296));
#563=CARTESIAN_POINT('',(0.13,0.02345,0.03005));
#564=CARTESIAN_POINT('',(0.052,0.02345,0.0296));
#565=CARTESIAN_POINT('',(0.052,0.02345,0.03005));
#566=CARTESIAN_POINT('',(0.052,0.02345,0.03005));
#567=CARTESIAN_POINT('',(0.052,0.024225,0.03005));
#568=CARTESIAN_POINT('',(0.052,0.024225,0.03005));
#569=CARTESIAN_POINT('',(0.052,0.025,0.03005));
#570=CARTESIAN_POINT('',(0.13,0.024225,0.03005));
#571=CARTESIAN_POINT('',(0.052,0.025,0.0301871317490936));
#572=CARTESIAN_POINT('',(0.052,0.025,0.030324263498187));
#573=CARTESIAN_POINT('',(0.052,-0.024225,0.030324263498187));
#574=CARTESIAN_POINT('',(0.052,-0.024225,0.030324263498187));
#575=CARTESIAN_POINT('',(0.052,-0.025,0.030324263498187));
#576=CARTESIAN_POINT('',(0.13,-0.024225,0.030324263498187));
#577=CARTESIAN_POINT('',(0.052,-0.025,0.0301871317490936));
#578=CARTESIAN_POINT('',(0.052,4.02455846426619E-18,0.0159121317490935));
#579=CARTESIAN_POINT('',(0.13,2.56739074444567E-17,0.0159121317490935));
#580=MECHANICAL_DESIGN_GEOMETRIC_PRESENTATION_REPRESENTATION('',(#349),
#581);
#581=(
GEOMETRIC_REPRESENTATION_CONTEXT(3)
GLOBAL_UNCERTAINTY_ASSIGNED_CONTEXT((#582))
GLOBAL_UNIT_ASSIGNED_CONTEXT((#585,#584,#583))
REPRESENTATION_CONTEXT('lid','TOP_LEVEL_ASSEMBLY_PART')
);
#582=UNCERTAINTY_MEASURE_WITH_UNIT(LENGTH_MEASURE(1.E-8),#585,
'DISTANCE_ACCURACY_VALUE','Maximum Tolerance applied to model');
#583=(
NAMED_UNIT(*)
SI_UNIT($,.STERADIAN.)
SOLID_ANGLE_UNIT()
);
#584=(
NAMED_UNIT(*)
PLANE_ANGLE_UNIT()
SI_UNIT($,.RADIAN.)
);
#585=(
LENGTH_UNIT()
NAMED_UNIT(*)
SI_UNIT($,.METRE.)
);
#586=PRODUCT_DEFINITION_SHAPE('','',#587);
#587=PRODUCT_DEFINITION('','',#589,#588);
#588=PRODUCT_DEFINITION_CONTEXT('',#595,'design');
#589=PRODUCT_DEFINITION_FORMATION_WITH_SPECIFIED_SOURCE('','',#591,
 .NOT_KNOWN.);
#590=PRODUCT_RELATED_PRODUCT_CATEGORY('','',(#591));
#591=PRODUCT('lid','lid','lid',(#593));
#592=PRODUCT_CATEGORY('','');
#593=PRODUCT_CONTEXT('',#595,'mechanical');
#594=APPLICATION_PROTOCOL_DEFINITION('international standard',
'ap242_managed_model_based_3d_engineering',2020,#595);
#595=APPLICATION_CONTEXT('managed model based 3d engineering');
ENDSEC;
END-ISO-10303-21;
